<svg width="128" height="88" viewBox="0 0 128 88" fill="none" xmlns="http://www.w3.org/2000/svg">
<g clip-path="url(#clip0_50_1366)">
<path d="M5.32213 75.9951C3.87064 75.9415 2.52667 76.6918 1.88156 77.9781C1.93532 76.2095 2.47291 74.9233 4.24696 74.1194L6.66611 73.0475C7.90256 72.5116 8.33263 72.19 8.33263 71.1718V70.475H7.09618V71.011C7.09618 71.4933 6.88114 71.6541 6.021 72.0292L3.76312 73.0475C2.68795 73.4227 1.8278 74.2266 1.34397 75.2448C0.913902 76.4775 0.698866 77.7637 0.752625 79.0499C0.698866 80.4434 1.07518 81.8368 1.77404 83.0694C2.47291 84.0877 3.54809 84.57 5.05334 84.57C6.18228 84.6236 7.31121 84.1949 8.1176 83.391C9.67661 81.6224 9.73037 78.9428 8.22512 77.1206C7.47249 76.3703 6.39731 75.9415 5.32213 75.9951ZM7.14994 82.6407C6.61235 83.2302 5.85972 83.4982 5.05334 83.4982C3.33305 83.4982 2.0966 82.2655 2.0966 80.229C2.04284 79.3715 2.36539 78.5676 2.95674 77.9781C3.54809 77.3886 4.30071 77.067 5.16086 77.067C5.91348 77.067 6.66611 77.3886 7.2037 77.9245C8.27887 79.3179 8.27887 81.2473 7.14994 82.6407ZM14.9987 74.8697C13.7623 74.8161 12.5796 75.2984 11.7194 76.2095C10.8055 77.1742 10.3217 78.4604 10.4292 79.7467C10.3755 81.0329 10.8593 82.3191 11.827 83.2302C12.7409 84.1413 14.0311 84.6236 15.3213 84.57C16.6115 84.57 17.7942 84.0877 18.7619 83.2838L18.1705 82.3191C17.4179 83.0694 16.3965 83.4446 15.3213 83.4446C14.3536 83.4446 13.4397 83.123 12.7946 82.4263C12.0958 81.7296 11.7194 80.7113 11.7194 79.6931H18.8694C18.8694 79.4251 18.9231 79.2107 18.9231 79.1035C18.9769 77.9781 18.6006 76.9062 17.9017 76.0487C17.1491 75.2984 16.0739 74.8161 14.9987 74.8697ZM11.7732 78.8356C12.0958 77.0134 13.386 75.9415 14.945 75.9415C16.3965 75.9415 17.5254 77.0134 17.5792 78.8356H11.7732ZM25.3205 74.8697C24.2453 74.8161 23.2239 75.2448 22.525 76.0487C22.3637 76.2095 22.2024 76.4239 22.0949 76.6919H22.0412V76.0487C22.0412 75.4056 21.6648 75.0841 20.9122 75.0841H19.6758V76.1559H20.4284C20.6434 76.1023 20.8047 76.2631 20.8585 76.4239C20.8585 76.4775 20.8585 76.4775 20.8585 76.5311V88H22.0949V83.6054C22.0949 83.2838 22.0949 83.0158 22.0412 82.8015H22.0949L22.2024 82.9623C22.8475 83.9805 23.9765 84.57 25.1592 84.5164C26.2881 84.57 27.4171 84.0341 28.1697 83.1766C28.9761 82.2119 29.4061 80.9257 29.3524 79.6395C29.4061 78.3532 29.0298 77.1206 28.2234 76.1023C27.5246 75.352 26.4494 74.8697 25.3205 74.8697ZM27.202 82.4799C26.6644 83.123 25.9118 83.4982 25.0517 83.4982C24.1915 83.5518 23.3851 83.123 22.9013 82.3727C22.3637 81.6224 22.0949 80.7113 22.1487 79.7467C22.1487 77.2814 23.4389 75.9951 25.1592 75.9951C26.8795 75.9951 28.1159 77.4957 28.1159 79.6931C28.1159 80.7649 27.7934 81.7296 27.202 82.4799ZM34.9971 74.8697C33.7606 74.8161 32.5779 75.2984 31.7178 76.2095C30.8039 77.1742 30.32 78.4604 30.4276 79.7467C30.3738 81.0329 30.8576 82.3191 31.8253 83.2302C32.7392 84.1413 34.0294 84.6236 35.3196 84.57C36.6098 84.57 37.7925 84.0877 38.7602 83.2838L38.1688 82.3191C37.4162 83.0694 36.3948 83.4446 35.3196 83.4446C34.352 83.4446 33.4381 83.123 32.7929 82.4263C32.0941 81.7296 31.7178 80.7113 31.7178 79.6931H38.8677C38.8677 79.4251 38.9215 79.2107 38.9215 79.1035C38.9752 77.9781 38.5989 76.9062 37.9 76.0487C37.1474 75.2984 36.0722 74.8161 34.9971 74.8697ZM31.7715 78.8356C32.0941 77.0134 33.3843 75.9415 34.9433 75.9415C36.3948 75.9415 37.5237 77.0134 37.5775 78.8356H31.7715ZM49.727 80.5506L52.0924 84.4093H50.5871L48.5981 81.0329C48.2755 80.497 47.6842 80.1754 47.0928 80.229H46.4477V84.4093H45.2113V80.229H44.5124C43.921 80.1754 43.3297 80.497 43.0071 81.0329L41.0181 84.4093H39.5128L41.8782 80.5506C42.0932 80.1754 42.4158 79.9074 42.7921 79.7467L42.9534 79.6931V79.6395C42.6308 79.5323 42.362 79.2643 42.2008 78.9428L41.0718 76.6383C40.8568 76.3167 40.6955 76.2095 40.1579 76.2095H39.7816V75.1376H40.4805C41.4481 75.1376 41.7707 75.2448 42.147 76.0487L43.3297 78.514C43.5447 78.9428 44.0286 79.2107 44.5124 79.1571H45.2113V75.1376H46.4477V79.1571H47.1466C47.6304 79.2107 48.1142 78.9428 48.3293 78.514L49.5657 76.0487C49.9958 75.2448 50.2646 75.1376 51.2323 75.1376H51.9311V76.2095H51.5011C51.0172 76.2095 50.8022 76.3167 50.6409 76.6383L49.512 78.9428C49.3507 79.2107 49.1357 79.4251 48.8669 79.5859L48.7593 79.6931C49.1894 79.8003 49.5657 80.0682 49.727 80.5506ZM59.0273 72.9939H57.9521V71.3861H59.0273V72.9939ZM55.1567 72.9939V71.3861H56.2318V72.9939H55.1567ZM57.1995 74.8697C55.963 74.8161 54.7803 75.2984 53.9202 76.2095C53.0063 77.1742 52.5225 78.4604 52.63 79.7467C52.5762 81.0329 53.0601 82.3191 54.0277 83.2302C54.9416 84.1413 56.2318 84.6236 57.522 84.57C58.7585 84.5165 59.995 84.0877 60.9626 83.2838L60.3713 82.3191C59.5649 83.0158 58.5972 83.391 57.522 83.4446C56.5544 83.4446 55.6405 83.123 54.9954 82.4799C54.2965 81.7832 53.9202 80.8185 53.9202 79.8002H61.0701C61.0701 79.8002 61.1239 79.3715 61.1239 79.1571C61.1777 78.0317 60.8013 76.9598 60.1025 76.1023C59.4036 75.2984 58.3284 74.8161 57.1995 74.8697ZM53.974 78.782C54.1352 77.1206 55.533 75.888 57.1457 75.888C58.651 75.888 59.7262 76.9062 59.7799 78.782H53.974ZM73.811 83.2838H74.3486V84.3557H73.3272C72.5745 84.3557 72.3595 84.0341 72.3058 83.3374L71.8757 78.4604L71.8219 76.799H71.7682C71.6069 77.2814 71.4456 77.7637 71.2306 78.1925L68.7039 83.2838H67.4675L64.9408 78.1925C64.7795 77.7637 64.6182 77.3886 64.457 76.9598L64.4032 76.799H64.3494C64.3494 77.5493 64.2957 78.1389 64.2957 78.4604L63.8656 83.3374C63.8118 84.0341 63.5968 84.3557 62.8442 84.3557H61.8228V83.2838H62.3604H62.4141C62.6291 83.2838 62.7367 83.123 62.7367 82.9087L63.3818 75.0841H64.7257L67.5212 80.8721L68.0588 82.0512L68.5964 80.8721L71.3919 75.0841H72.7358L73.3809 82.9087C73.3809 83.1766 73.5422 83.2838 73.811 83.2838ZM88.1646 76.1559V77.2814H87.0895V76.5847C87.0895 76.5311 87.0895 76.5311 87.0895 76.4775C87.0357 76.3167 86.8744 76.1559 86.6594 76.2095H84.3478V84.4093H83.1113V76.2095H80.7997C80.7459 76.2095 80.7459 76.2095 80.6922 76.2095C80.5309 76.2631 80.3696 76.4239 80.4234 76.6383V77.335H79.3482V76.2095C79.3482 75.4592 79.6707 75.1376 80.4771 75.1376H87.0357C87.8421 75.1376 88.1646 75.4056 88.1646 76.1559ZM93.3255 74.8697C92.089 74.8161 90.9063 75.2984 90.0462 76.2095C89.1323 77.1742 88.7022 78.4604 88.756 79.7467C88.7022 81.0329 89.1861 82.3191 90.1537 83.2302C91.0676 84.1413 92.3578 84.6236 93.648 84.57C94.9383 84.57 96.121 84.0877 97.0886 83.2838L96.4973 82.3191C95.7446 83.0694 94.7232 83.4446 93.648 83.4446C92.6804 83.4446 91.7665 83.123 91.1214 82.4263C90.4225 81.7296 90.0462 80.7113 90.0462 79.6931H97.1961C97.1961 79.4251 97.2499 79.2107 97.2499 79.1035C97.3037 77.9781 96.9273 76.9062 96.2285 76.0487C95.5296 75.2984 94.4544 74.8161 93.3255 74.8697ZM90.1537 78.8356C90.4763 77.0134 91.7665 75.9415 93.3255 75.9415C94.777 75.9415 95.9059 77.0134 95.9597 78.8356H90.1537ZM107.303 83.2838H108.055V84.3557H106.765C105.959 84.3557 105.636 84.0341 105.636 83.2302V76.5847C105.636 76.5311 105.636 76.5311 105.636 76.4775C105.583 76.3167 105.421 76.1559 105.206 76.2095H100.475V84.4093H99.239V76.2095H98.0563V75.1376H105.798C106.604 75.1376 106.926 75.4592 106.926 76.2631V82.9087C106.873 82.9087 106.873 82.9622 106.873 83.0158C106.927 83.1766 107.088 83.3374 107.303 83.2838ZM116.657 83.2838H117.409V84.3557H116.119C115.313 84.3557 114.99 84.0341 114.99 83.2302V76.5847C114.99 76.5311 114.99 76.5311 114.99 76.4775C114.937 76.3167 114.775 76.1559 114.56 76.2095H112.034V76.9598C112.034 77.335 112.034 77.7637 111.98 78.1925C111.926 79.3179 111.765 80.3898 111.442 81.4616C110.905 83.0158 110.045 84.4629 108.378 84.4629V83.3374C109.346 83.3374 110.045 82.2655 110.367 80.8721C110.69 79.5323 110.851 78.246 110.851 76.9062V76.2095H109.668V75.1376H115.098C115.904 75.1376 116.227 75.4592 116.227 76.2631V82.9087C116.227 82.9087 116.227 82.9622 116.227 83.0158C116.281 83.1766 116.442 83.3374 116.657 83.2838ZM123.054 74.8697C121.764 74.8161 120.474 75.352 119.56 76.2631C118.646 77.1742 118.108 78.4068 118.162 79.6931C118.108 80.9793 118.646 82.2655 119.56 83.1766C121.495 85.0524 124.559 85.0524 126.495 83.1766C127.409 82.2655 127.946 80.9793 127.892 79.6931C127.946 78.4068 127.409 77.1742 126.495 76.2631C125.635 75.352 124.398 74.8697 123.054 74.8697ZM125.635 82.3727C124.291 83.7661 121.979 83.8197 120.581 82.4799C120.528 82.4263 120.528 82.4263 120.474 82.3727C119.775 81.676 119.399 80.6577 119.399 79.6931C119.345 78.7284 119.775 77.7637 120.474 77.067C121.871 75.6736 124.183 75.62 125.581 77.067C126.28 77.7637 126.656 78.7284 126.656 79.6931C126.71 80.7113 126.333 81.676 125.635 82.3727ZM12.3646 63.6687C11.6657 64.2582 10.8593 64.7406 9.99916 65.0085C8.97774 65.3301 7.90256 65.4909 6.82738 65.4909C4.35447 65.4909 1.98908 64.7406 0 63.2936L2.15036 59.2205C2.84922 59.8636 3.60185 60.3459 4.40823 60.7211C5.1071 61.0426 5.85972 61.2034 6.61235 61.2034C7.25746 61.257 7.90256 61.0426 8.44015 60.6139C8.81646 60.2923 9.0315 59.81 9.0315 59.3277C9.0315 59.0597 8.97774 58.7917 8.87022 58.5774C8.70895 58.363 8.54767 58.1486 8.33263 57.9878C8.06384 57.7735 7.74129 57.6127 7.41873 57.5055C7.04242 57.3447 6.55859 57.1839 6.021 56.9696C5.37589 56.7552 4.73079 56.5408 4.08568 56.2728C3.49433 56.0585 2.90298 55.7369 2.41915 55.3082C1.93532 54.8794 1.50525 54.3435 1.23646 53.754C0.913902 53.0037 0.752625 52.1998 0.806384 51.3959C0.806384 50.4848 0.967661 49.5737 1.29021 48.7698C1.61277 48.0195 2.04284 47.3764 2.63419 46.7869C3.22554 46.1973 3.9244 45.7686 4.73079 45.5006C5.64469 45.1791 6.55859 45.0183 7.52625 45.0183C8.54767 45.0183 9.56909 45.1255 10.5367 45.3934C11.5582 45.6614 12.5796 46.0366 13.5472 46.5725L11.5582 50.4848C11.0206 50.1096 10.483 49.7881 9.89164 49.5201C9.35405 49.3057 8.81646 49.1985 8.27887 49.1985C7.68753 49.1985 7.14994 49.3593 6.66611 49.6809C6.23604 50.0024 6.021 50.4312 6.021 50.9135C6.021 51.2351 6.12852 51.5566 6.34355 51.771C6.55859 52.039 6.82738 52.1998 7.14994 52.3605C7.52625 52.5213 7.90256 52.6821 8.27887 52.7893C8.70895 52.8965 9.08526 53.0037 9.51533 53.1644C10.8593 53.5396 12.1495 54.2899 13.1172 55.3618C13.9236 56.38 14.2999 57.6663 14.2461 58.9525C14.2999 59.8636 14.0848 60.7747 13.7623 61.6322C13.4397 62.4361 12.9021 63.1328 12.3646 63.6687ZM21.5036 61.9537H29.1911L30.4276 65.5445H35.6959L28.1697 45.7686H22.525L14.9987 65.5445H20.2671L21.5036 61.9537ZM25.3742 51.8782L27.6321 58.3094H23.1163L25.3742 51.8782ZM56.6619 65.5445H52.2537L42.2545 53.4324V65.5445H36.8786V45.7686H41.2331L51.286 57.8271V45.7686H56.6619V65.5445ZM65.6934 65.5445H60.2638V45.7686H65.6934V53.9147L72.3058 45.7686H78.9719L70.693 55.0938L79.7245 65.5445H72.7358L65.6934 56.9696V65.5445ZM82.5737 62.5968C83.5414 63.5615 84.7241 64.2582 85.9605 64.7942C88.756 65.8124 91.8202 65.8124 94.6157 64.7942C95.9059 64.3118 97.0349 63.5615 98.0563 62.5968C99.0239 61.6858 99.7766 60.5603 100.26 59.3277C101.336 56.7552 101.336 53.8612 100.26 51.2887C99.7228 50.056 98.9702 48.9842 98.0563 48.0195C97.0886 47.0548 95.9059 46.3581 94.6157 45.8758C91.8202 44.8039 88.756 44.8039 85.9605 45.8758C80.6921 47.9659 78.1655 53.9147 80.2621 59.1133C80.7997 60.3995 81.5523 61.5786 82.5737 62.5968ZM85.2617 53.1644C85.853 51.8782 86.8744 50.8599 88.1646 50.3776C90.2075 49.5737 92.5191 50.0024 94.1319 51.5031C94.6157 51.9854 95.0458 52.5749 95.3146 53.218C95.9059 54.5579 95.9059 56.1121 95.3146 57.5055C95.0458 58.1486 94.6157 58.7381 94.1319 59.2205C93.6481 59.7028 93.0029 60.078 92.3578 60.3459C91.0139 60.8819 89.5086 60.8819 88.1646 60.3459C87.5195 60.078 86.9282 59.7028 86.4444 59.2205C85.9605 58.7381 85.5305 58.1486 85.2617 57.5055C84.6703 56.0585 84.6703 54.5579 85.2617 53.1644ZM109.991 54.1291L108.27 65.5445H103.11L106.496 45.7686H111.604L115.582 56.2728L119.506 45.7686H124.613L128 65.5445H122.839L121.119 54.1291L116.442 65.5445H114.399L109.991 54.1291Z" fill="black"/>
<path d="M60.2642 10.2363L66.8766 18.3825C67.3067 18.9184 67.5755 19.6151 67.5755 20.3118V24.7601C67.5755 25.5104 67.3067 26.2071 66.8228 26.743L64.995 28.8331C64.4037 29.4763 63.5973 29.905 62.6834 29.905H57.8451C56.9849 29.905 56.1248 29.5298 55.5335 28.8331L53.7056 26.743C53.2218 26.2071 52.953 25.5104 52.953 24.7601V20.3118C52.953 19.6151 53.1681 18.9184 53.6519 18.3825L60.2642 10.2363ZM60.2642 0L47.5234 15.6492C46.8783 16.5067 46.502 17.4714 46.502 18.5432V26.5822C46.502 27.6541 46.8783 28.7259 47.6309 29.5834L52.1466 34.7284C53.0068 35.7467 54.297 36.2826 55.5872 36.2826H64.9413C66.2852 36.2826 67.5217 35.6931 68.3818 34.7284L72.8976 29.5834C73.5965 28.7795 74.0265 27.7077 74.0265 26.5822V18.5432C74.0265 17.4714 73.6502 16.5067 73.0051 15.6492L60.2642 0Z" fill="#FF7735"/>
</g>
<defs>
<clipPath id="clip0_50_1366">
<rect width="128" height="88" fill="white"/>
</clipPath>
</defs>
</svg>
