<svg width="187" height="67" viewBox="0 0 187 67" fill="none" xmlns="http://www.w3.org/2000/svg">
<path d="M47.6808 53.3191C46.0324 53.258 44.5061 54.1131 43.7735 55.5789C43.8346 53.5634 44.4451 52.0976 46.4598 51.1814L49.2071 49.9599C50.6113 49.3492 51.0997 48.9827 51.0997 47.8223V47.0283H49.6955V47.639C49.6955 48.1887 49.4513 48.3719 48.4745 48.7995L45.9103 49.9599C44.6893 50.3874 43.7125 51.3036 43.163 52.464C42.6746 53.8687 42.4304 55.3346 42.4914 56.8004C42.4304 58.3883 42.8577 59.9763 43.6514 61.3811C44.4451 62.5415 45.6661 63.0912 47.3755 63.0912C48.6576 63.1523 49.9397 62.6636 50.8555 61.7475C52.6259 59.732 52.687 56.6782 50.9776 54.6017C50.1228 53.7466 48.9018 53.258 47.6808 53.3191ZM49.7565 60.8924C49.146 61.5643 48.2913 61.8697 47.3755 61.8697C45.4219 61.8697 44.0177 60.4649 44.0177 58.144C43.9567 57.1668 44.323 56.2507 44.9945 55.5789C45.6661 54.907 46.5208 54.5406 47.4976 54.5406C48.3524 54.5406 49.2071 54.907 49.8176 55.5178C51.0386 57.1058 51.0386 59.3045 49.7565 60.8924ZM58.67 52.0365C57.2658 51.9754 55.9227 52.5251 54.9459 53.5634C53.908 54.6627 53.3586 56.1285 53.4807 57.5944C53.4196 59.0602 53.9691 60.526 55.068 61.5643C56.1059 62.6026 57.5711 63.1523 59.0363 63.0912C60.5016 63.0912 61.8447 62.5415 62.9436 61.6254L62.272 60.526C61.4173 61.3811 60.2574 61.8086 59.0363 61.8086C57.9374 61.8086 56.8995 61.4421 56.1669 60.6481C55.3733 59.8542 54.9459 58.6937 54.9459 57.5333H63.0657C63.0657 57.2279 63.1268 56.9836 63.1268 56.8615C63.1878 55.5789 62.7605 54.3574 61.9668 53.3801C61.1121 52.5251 59.891 51.9754 58.67 52.0365ZM55.0069 56.5561C55.3733 54.4795 56.8385 53.258 58.609 53.258C60.2574 53.258 61.5394 54.4795 61.6005 56.5561H55.0069ZM70.3919 52.0365C69.1708 51.9754 68.0109 52.464 67.2172 53.3801C67.034 53.5634 66.8509 53.8077 66.7288 54.1131H66.6677V53.3801C66.6677 52.6472 66.2404 52.2808 65.3857 52.2808H63.9815V53.5023H64.8362C65.0804 53.4412 65.2636 53.6244 65.3246 53.8077C65.3246 53.8687 65.3246 53.8688 65.3246 53.9298V67H66.7288V61.9918C66.7288 61.6254 66.7288 61.32 66.6677 61.0757H66.7288L66.8509 61.2589C67.5835 62.4193 68.8656 63.0912 70.2087 63.0301C71.4908 63.0912 72.7729 62.4804 73.6276 61.5032C74.5433 60.4038 75.0318 58.938 74.9707 57.4722C75.0318 56.0064 74.6044 54.6017 73.6886 53.4412C72.895 52.5862 71.6739 52.0365 70.3919 52.0365ZM72.5287 60.7092C71.9181 61.4421 71.0634 61.8697 70.0866 61.8697C69.1098 61.9307 68.194 61.4421 67.6446 60.5871C67.034 59.732 66.7288 58.6937 66.7898 57.5944C66.7898 54.7849 68.2551 53.3191 70.2087 53.3191C72.1623 53.3191 73.5665 55.0292 73.5665 57.5333C73.5665 58.7548 73.2002 59.8542 72.5287 60.7092ZM81.3811 52.0365C79.9769 51.9754 78.6338 52.5251 77.657 53.5634C76.6191 54.6627 76.0696 56.1285 76.1917 57.5944C76.1307 59.0602 76.6801 60.526 77.7791 61.5643C78.8169 62.6026 80.2822 63.1523 81.7474 63.0912C83.2126 63.0912 84.5558 62.5415 85.6547 61.6254L84.9831 60.526C84.1284 61.3811 82.9684 61.8086 81.7474 61.8086C80.6485 61.8086 79.6106 61.4421 78.878 60.6481C78.0843 59.8542 77.657 58.6937 77.657 57.5333H85.7768C85.7768 57.2279 85.8378 56.9836 85.8378 56.8615C85.8989 55.5789 85.4715 54.3574 84.6779 53.3801C83.8231 52.5251 82.6021 51.9754 81.3811 52.0365ZM77.718 56.5561C78.0843 54.4795 79.5495 53.258 81.32 53.258C82.9684 53.258 84.2505 54.4795 84.3116 56.5561H77.718ZM98.1091 58.5105L100.795 62.9079H99.086L96.8271 59.0602C96.4608 58.4494 95.7892 58.083 95.1176 58.144H94.385V62.9079H92.9808V58.144H92.1872C91.5156 58.083 90.844 58.4494 90.4777 59.0602L88.2188 62.9079H86.5094L89.1957 58.5105C89.4399 58.083 89.8062 57.7776 90.2335 57.5944L90.4167 57.5333V57.4722C90.0504 57.3501 89.7451 57.0447 89.562 56.6782L88.2799 54.052C88.0357 53.6855 87.8525 53.5634 87.242 53.5634H86.8146V52.3419H87.6083C88.7072 52.3419 89.0735 52.464 89.5009 53.3801L90.844 56.1896C91.0882 56.6782 91.6377 56.9836 92.1872 56.9225H92.9808V52.3419H94.385V56.9225H95.1787C95.7281 56.9836 96.2776 56.6782 96.5218 56.1896L97.926 53.3801C98.4144 52.464 98.7196 52.3419 99.8186 52.3419H100.612V53.5634H100.124C99.5744 53.5634 99.3302 53.6855 99.147 54.052L97.8649 56.6782C97.6818 56.9836 97.4376 57.2279 97.1323 57.4111L97.0102 57.5333C97.4986 57.6554 97.926 57.9608 98.1091 58.5105ZM108.671 49.8988H107.45V48.0666H108.671V49.8988ZM104.275 49.8988V48.0666H105.496V49.8988H104.275ZM106.595 52.0365C105.191 51.9754 103.848 52.5251 102.871 53.5634C101.833 54.6627 101.284 56.1285 101.406 57.5944C101.345 59.0602 101.894 60.526 102.993 61.5643C104.031 62.6026 105.496 63.1523 106.962 63.0912C108.366 63.0301 109.77 62.5415 110.869 61.6254L110.197 60.526C109.282 61.32 108.183 61.7475 106.962 61.8086C105.863 61.8086 104.825 61.4421 104.092 60.7092C103.298 59.9152 102.871 58.8159 102.871 57.6554H110.991C110.991 57.6554 111.052 57.1668 111.052 56.9225C111.113 55.6399 110.686 54.4184 109.892 53.4412C109.098 52.5251 107.877 51.9754 106.595 52.0365ZM102.932 56.495C103.115 54.6017 104.703 53.1969 106.534 53.1969C108.244 53.1969 109.465 54.3574 109.526 56.495H102.932ZM125.46 61.6254H126.071V62.8469H124.911C124.056 62.8469 123.812 62.4804 123.751 61.6864L123.262 56.1285L123.201 54.2352H123.14C122.957 54.7849 122.774 55.3346 122.53 55.8232L119.66 61.6254H118.256L115.387 55.8232C115.203 55.3346 115.02 54.907 114.837 54.4184L114.776 54.2352H114.715C114.715 55.0903 114.654 55.7621 114.654 56.1285L114.166 61.6864C114.105 62.4804 113.86 62.8469 113.006 62.8469H111.846V61.6254H112.456H112.517C112.761 61.6254 112.884 61.4421 112.884 61.1978L113.616 52.2808H115.142L118.317 58.877L118.928 60.2206L119.538 58.877L122.713 52.2808H124.239L124.972 61.1978C124.972 61.5032 125.155 61.6254 125.46 61.6254ZM141.761 53.5023V54.7849H140.54V53.9909C140.54 53.9298 140.54 53.9298 140.54 53.8687C140.479 53.6855 140.296 53.5023 140.051 53.5634H137.426V62.9079H136.022V53.5634H133.397C133.336 53.5634 133.336 53.5634 133.275 53.5634C133.092 53.6244 132.908 53.8077 132.969 54.052V54.846H131.748V53.5634C131.748 52.7083 132.115 52.3419 133.03 52.3419H140.479C141.394 52.3419 141.761 52.6472 141.761 53.5023ZM147.622 52.0365C146.218 51.9754 144.874 52.5251 143.898 53.5634C142.86 54.6627 142.371 56.1285 142.432 57.5944C142.371 59.0602 142.921 60.526 144.02 61.5643C145.058 62.6026 146.523 63.1523 147.988 63.0912C149.453 63.0912 150.796 62.5415 151.895 61.6254L151.224 60.526C150.369 61.3811 149.209 61.8086 147.988 61.8086C146.889 61.8086 145.851 61.4421 145.119 60.6481C144.325 59.8542 143.898 58.6937 143.898 57.5333H152.017C152.017 57.2279 152.078 56.9836 152.078 56.8615C152.139 55.5789 151.712 54.3574 150.918 53.3801C150.125 52.5251 148.904 51.9754 147.622 52.0365ZM144.02 56.5561C144.386 54.4795 145.851 53.258 147.622 53.258C149.27 53.258 150.552 54.4795 150.613 56.5561H144.02ZM163.495 61.6254H164.35V62.8469H162.885C161.969 62.8469 161.602 62.4804 161.602 61.5643V53.9909C161.602 53.9298 161.602 53.9298 161.602 53.8687C161.541 53.6855 161.358 53.5023 161.114 53.5634H155.742V62.9079H154.337V53.5634H152.994V52.3419H161.786C162.701 52.3419 163.068 52.7083 163.068 53.6244V61.1978C163.007 61.1978 163.007 61.2589 163.007 61.32C163.068 61.5032 163.251 61.6864 163.495 61.6254ZM174.118 61.6254H174.973V62.8469H173.507C172.592 62.8469 172.225 62.4804 172.225 61.5643V53.9909C172.225 53.9298 172.225 53.9298 172.225 53.8687C172.164 53.6855 171.981 53.5023 171.737 53.5634H168.868V54.4184C168.868 54.846 168.868 55.3346 168.806 55.8232C168.745 57.1058 168.562 58.3273 168.196 59.5488C167.585 61.32 166.609 62.969 164.716 62.969V61.6864C165.815 61.6864 166.609 60.4649 166.975 58.877C167.341 57.3501 167.524 55.8842 167.524 54.3574V53.5634H166.181V52.3419H172.347C173.263 52.3419 173.63 52.7083 173.63 53.6244V61.1978C173.63 61.1978 173.63 61.2589 173.63 61.32C173.691 61.5032 173.874 61.6864 174.118 61.6254ZM181.383 52.0365C179.918 51.9754 178.453 52.5862 177.415 53.6244C176.377 54.6627 175.766 56.0675 175.827 57.5333C175.766 58.9991 176.377 60.4649 177.415 61.5032C179.613 63.6409 183.092 63.6409 185.29 61.5032C186.328 60.4649 186.939 58.9991 186.878 57.5333C186.939 56.0675 186.328 54.6627 185.29 53.6244C184.314 52.5862 182.909 52.0365 181.383 52.0365ZM184.314 60.5871C182.787 62.175 180.162 62.2361 178.575 60.7092C178.514 60.6481 178.514 60.6481 178.453 60.5871C177.659 59.7931 177.232 58.6326 177.232 57.5333C177.171 56.4339 177.659 55.3346 178.453 54.5406C180.04 52.9526 182.665 52.8915 184.252 54.5406C185.046 55.3346 185.473 56.4339 185.473 57.5333C185.535 58.6937 185.107 59.7931 184.314 60.5871ZM55.6785 39.2717C54.8848 39.9435 53.9691 40.4932 52.9923 40.7986C51.8323 41.165 50.6113 41.3482 49.3902 41.3482C46.5819 41.3482 43.8956 40.4932 41.6367 38.8441L44.0788 34.2024C44.8724 34.9353 45.7272 35.485 46.6429 35.9125C47.4366 36.279 48.2913 36.4622 49.146 36.4622C49.8786 36.5233 50.6113 36.279 51.2218 35.7904C51.6491 35.4239 51.8933 34.8742 51.8933 34.3245C51.8933 34.0192 51.8323 33.7138 51.7102 33.4695C51.527 33.2252 51.3439 32.9809 51.0997 32.7976C50.7944 32.5533 50.4281 32.3701 50.0618 32.248C49.6344 32.0647 49.085 31.8815 48.4745 31.6372C47.7418 31.3929 47.0092 31.1486 46.2766 30.8432C45.6051 30.5989 44.9335 30.2325 44.384 29.7439C43.8346 29.2553 43.3462 28.6445 43.0409 27.9727C42.6746 27.1176 42.4914 26.2015 42.5525 25.2853C42.5525 24.2471 42.7356 23.2088 43.1019 22.2926C43.4683 21.4376 43.9567 20.7047 44.6282 20.0328C45.2998 19.361 46.0935 18.8724 47.0092 18.567C48.0471 18.2006 49.085 18.0173 50.1839 18.0173C51.3439 18.0173 52.5038 18.1395 53.6028 18.4449C54.7627 18.7502 55.9227 19.1778 57.0216 19.7885L54.7627 24.2471C54.1522 23.8195 53.5417 23.4531 52.8702 23.1477C52.2596 22.9034 51.6491 22.7812 51.0386 22.7812C50.367 22.7812 49.7565 22.9645 49.2071 23.3309C48.7187 23.6974 48.4745 24.186 48.4745 24.7357C48.4745 25.1021 48.5966 25.4686 48.8408 25.7129C49.085 26.0182 49.3902 26.2015 49.7565 26.3847C50.1839 26.5679 50.6113 26.7512 51.0386 26.8733C51.527 26.9955 51.9544 27.1176 52.4428 27.3008C53.9691 27.7284 55.4343 28.5834 56.5332 29.8049C57.449 30.9654 57.8764 32.4312 57.8153 33.897C57.8764 34.9353 57.6322 35.9736 57.2658 36.9508C56.8995 37.8669 56.289 38.6609 55.6785 39.2717ZM66.0572 37.3172H74.7876L76.1917 41.4093H82.1748L73.6276 18.8724H67.2172L58.67 41.4093H64.653L66.0572 37.3172ZM70.4529 25.835L73.0171 33.1641H67.8888L70.4529 25.835ZM105.985 41.4093H100.979L89.623 27.6062V41.4093H83.5179V18.8724H88.463L99.8796 32.6144V18.8724H105.985V41.4093ZM116.241 41.4093H110.075V18.8724H116.241V28.1559L123.751 18.8724H131.321L121.919 29.4996L132.176 41.4093H124.239L116.241 31.6372V41.4093ZM135.411 38.0502C136.51 39.1495 137.854 39.9435 139.258 40.5543C142.432 41.7147 145.912 41.7147 149.087 40.5543C150.552 40.0046 151.834 39.1495 152.994 38.0502C154.093 37.0119 154.948 35.7293 155.497 34.3245C156.718 31.3929 156.718 28.0948 155.497 25.1632C154.887 23.7584 154.032 22.5369 152.994 21.4376C151.895 20.3382 150.552 19.5442 149.087 18.9945C145.912 17.773 142.432 17.773 139.258 18.9945C133.275 21.3765 130.405 28.1559 132.786 34.0802C133.397 35.546 134.251 36.8897 135.411 38.0502ZM138.464 27.3008C139.136 25.835 140.296 24.6746 141.761 24.1249C144.081 23.2088 146.706 23.6974 148.537 25.4075C149.087 25.9572 149.575 26.629 149.881 27.3619C150.552 28.8888 150.552 30.66 149.881 32.248C149.575 32.9809 149.087 33.6527 148.537 34.2024C147.988 34.7521 147.255 35.1796 146.523 35.485C144.996 36.0957 143.287 36.0957 141.761 35.485C141.028 35.1796 140.357 34.7521 139.807 34.2024C139.258 33.6527 138.769 32.9809 138.464 32.248C137.792 30.5989 137.792 28.8888 138.464 27.3008ZM166.548 28.4002L164.594 41.4093H158.733L162.579 18.8724H168.379L172.897 30.8432L177.354 18.8724H183.154L187 41.4093H181.139L179.185 28.4002L173.874 41.4093H171.554L166.548 28.4002Z" fill="black"/>
<path d="M15.6291 11.6655L23.1384 20.949C23.6268 21.5597 23.9321 22.3537 23.9321 23.1477V28.217C23.9321 29.072 23.6268 29.866 23.0774 30.4768L21.0016 32.8587C20.3301 33.5916 19.4143 34.0802 18.3764 34.0802H12.8818C11.905 34.0802 10.9282 33.6527 10.2566 32.8587L8.18087 30.4768C7.63141 29.866 7.32615 29.072 7.32615 28.217V23.1477C7.32615 22.3537 7.57036 21.5597 8.11982 20.949L15.6291 11.6655ZM15.6291 0L1.15997 17.8341C0.427359 18.8113 0 19.9107 0 21.1322V30.2935C0 31.515 0.427359 32.7366 1.28208 33.7138L6.41038 39.577C7.3872 40.7375 8.85243 41.3482 10.3177 41.3482H20.9406C22.4669 41.3482 23.871 40.6764 24.8479 39.577L29.9762 33.7138C30.7698 32.7976 31.2582 31.5761 31.2582 30.2935V21.1322C31.2582 19.9107 30.8309 18.8113 30.0983 17.8341L15.6291 0Z" fill="#FF7735"/>
</svg>
