<svg width="187" height="68" viewBox="0 0 187 68" fill="none" xmlns="http://www.w3.org/2000/svg">
<path d="M47.6808 54.0739C46.0324 54.0128 44.5061 54.8679 43.7735 56.3337C43.8346 54.3182 44.4451 52.8524 46.4598 51.9362L49.2071 50.7147C50.6113 50.104 51.0997 49.7375 51.0997 48.5771V47.7831H49.6955V48.3939C49.6955 48.9435 49.4513 49.1268 48.4745 49.5543L45.9103 50.7147C44.6893 51.1423 43.7125 52.0584 43.163 53.2188C42.6746 54.6236 42.4304 56.0894 42.4914 57.5552C42.4304 59.1432 42.8577 60.7311 43.6514 62.1359C44.4451 63.2963 45.6661 63.846 47.3755 63.846C48.6576 63.9071 49.9397 63.4185 50.8555 62.5023C52.6259 60.4868 52.687 57.4331 50.9776 55.3565C50.1228 54.5014 48.9018 54.0128 47.6808 54.0739ZM49.7565 61.6473C49.146 62.3191 48.2913 62.6245 47.3755 62.6245C45.4219 62.6245 44.0177 61.2197 44.0177 58.8989C43.9567 57.9217 44.323 57.0055 44.9945 56.3337C45.6661 55.6619 46.5208 55.2954 47.4976 55.2954C48.3524 55.2954 49.2071 55.6619 49.8176 56.2726C51.0386 57.8606 51.0386 60.0593 49.7565 61.6473ZM58.67 52.7913C57.2658 52.7302 55.9227 53.2799 54.9459 54.3182C53.908 55.4176 53.3586 56.8834 53.4807 58.3492C53.4196 59.815 53.9691 61.2808 55.068 62.3191C56.1059 63.3574 57.5711 63.9071 59.0363 63.846C60.5016 63.846 61.8447 63.2963 62.9436 62.3802L62.272 61.2808C61.4173 62.1359 60.2574 62.5634 59.0363 62.5634C57.9374 62.5634 56.8995 62.197 56.1669 61.403C55.3733 60.609 54.9459 59.4485 54.9459 58.2881H63.0657C63.0657 57.9827 63.1268 57.7384 63.1268 57.6163C63.1878 56.3337 62.7605 55.1122 61.9668 54.135C61.1121 53.2799 59.891 52.7302 58.67 52.7913ZM55.0069 57.3109C55.3733 55.2343 56.8385 54.0128 58.609 54.0128C60.2574 54.0128 61.5394 55.2343 61.6005 57.3109H55.0069ZM70.3919 52.7913C69.1708 52.7302 68.0109 53.2188 67.2172 54.135C67.034 54.3182 66.8509 54.5625 66.7288 54.8679H66.6677V54.135C66.6677 53.4021 66.2404 53.0356 65.3857 53.0356H63.9815V54.2571H64.8362C65.0804 54.196 65.2636 54.3793 65.3246 54.5625C65.3246 54.6236 65.3246 54.6236 65.3246 54.6846V67.7548H66.7288V62.7466C66.7288 62.3802 66.7288 62.0748 66.6677 61.8305H66.7288L66.8509 62.0137C67.5835 63.1742 68.8656 63.846 70.2087 63.7849C71.4908 63.846 72.7729 63.2352 73.6276 62.258C74.5433 61.1587 75.0318 59.6928 74.9707 58.227C75.0318 56.7612 74.6044 55.3565 73.6886 54.196C72.895 53.341 71.6739 52.7913 70.3919 52.7913ZM72.5287 61.464C71.9181 62.197 71.0634 62.6245 70.0866 62.6245C69.1098 62.6856 68.194 62.197 67.6446 61.3419C67.034 60.4868 66.7288 59.4485 66.7898 58.3492C66.7898 55.5397 68.2551 54.0739 70.2087 54.0739C72.1623 54.0739 73.5665 55.784 73.5665 58.2881C73.5665 59.5096 73.2002 60.609 72.5287 61.464ZM81.3811 52.7913C79.9769 52.7302 78.6338 53.2799 77.657 54.3182C76.6191 55.4176 76.0696 56.8834 76.1917 58.3492C76.1307 59.815 76.6801 61.2808 77.7791 62.3191C78.8169 63.3574 80.2822 63.9071 81.7474 63.846C83.2126 63.846 84.5558 63.2963 85.6547 62.3802L84.9831 61.2808C84.1284 62.1359 82.9684 62.5634 81.7474 62.5634C80.6485 62.5634 79.6106 62.197 78.878 61.403C78.0843 60.609 77.657 59.4485 77.657 58.2881H85.7768C85.7768 57.9827 85.8378 57.7384 85.8378 57.6163C85.8989 56.3337 85.4715 55.1122 84.6779 54.135C83.8231 53.2799 82.6021 52.7302 81.3811 52.7913ZM77.718 57.3109C78.0843 55.2343 79.5495 54.0128 81.32 54.0128C82.9684 54.0128 84.2505 55.2343 84.3116 57.3109H77.718ZM98.1091 59.2653L100.795 63.6628H99.086L96.8271 59.815C96.4608 59.2042 95.7892 58.8378 95.1176 58.8989H94.385V63.6628H92.9808V58.8989H92.1872C91.5156 58.8378 90.844 59.2042 90.4777 59.815L88.2188 63.6628H86.5094L89.1957 59.2653C89.4399 58.8378 89.8062 58.5324 90.2335 58.3492L90.4167 58.2881V58.227C90.0504 58.1049 89.7451 57.7995 89.562 57.4331L88.2799 54.8068C88.0357 54.4403 87.8525 54.3182 87.242 54.3182H86.8146V53.0967H87.6083C88.7072 53.0967 89.0735 53.2188 89.5009 54.135L90.844 56.9444C91.0882 57.4331 91.6377 57.7384 92.1872 57.6774H92.9808V53.0967H94.385V57.6774H95.1787C95.7281 57.7384 96.2776 57.4331 96.5218 56.9444L97.926 54.135C98.4144 53.2188 98.7196 53.0967 99.8186 53.0967H100.612V54.3182H100.124C99.5744 54.3182 99.3302 54.4403 99.147 54.8068L97.8649 57.4331C97.6818 57.7384 97.4376 57.9827 97.1323 58.166L97.0102 58.2881C97.4986 58.4103 97.926 58.7156 98.1091 59.2653ZM108.671 50.6537H107.45V48.8214H108.671V50.6537ZM104.275 50.6537V48.8214H105.496V50.6537H104.275ZM106.595 52.7913C105.191 52.7302 103.848 53.2799 102.871 54.3182C101.833 55.4176 101.284 56.8834 101.406 58.3492C101.345 59.815 101.894 61.2808 102.993 62.3191C104.031 63.3574 105.496 63.9071 106.962 63.846C108.366 63.7849 109.77 63.2963 110.869 62.3802L110.197 61.2808C109.282 62.0748 108.183 62.5023 106.962 62.5634C105.863 62.5634 104.825 62.197 104.092 61.464C103.298 60.6701 102.871 59.5707 102.871 58.4103H110.991C110.991 58.4103 111.052 57.9217 111.052 57.6774C111.113 56.3948 110.686 55.1733 109.892 54.196C109.098 53.2799 107.877 52.7302 106.595 52.7913ZM102.932 57.2498C103.115 55.3565 104.703 53.9517 106.534 53.9517C108.244 53.9517 109.465 55.1122 109.526 57.2498H102.932ZM125.46 62.3802H126.071V63.6017H124.911C124.056 63.6017 123.812 63.2352 123.751 62.4413L123.262 56.8834L123.201 54.99H123.14C122.957 55.5397 122.774 56.0894 122.53 56.578L119.66 62.3802H118.256L115.387 56.578C115.203 56.0894 115.02 55.6619 114.837 55.1733L114.776 54.99H114.715C114.715 55.8451 114.654 56.5169 114.654 56.8834L114.166 62.4413C114.105 63.2352 113.86 63.6017 113.006 63.6017H111.846V62.3802H112.456H112.517C112.761 62.3802 112.884 62.197 112.884 61.9526L113.616 53.0356H115.142L118.317 59.6318L118.928 60.9754L119.538 59.6318L122.713 53.0356H124.239L124.972 61.9526C124.972 62.258 125.155 62.3802 125.46 62.3802ZM141.761 54.2571V55.5397H140.54V54.7457C140.54 54.6846 140.54 54.6846 140.54 54.6236C140.479 54.4403 140.296 54.2571 140.051 54.3182H137.426V63.6628H136.022V54.3182H133.397C133.336 54.3182 133.336 54.3182 133.275 54.3182C133.092 54.3793 132.908 54.5625 132.969 54.8068V55.6008H131.748V54.3182C131.748 53.4631 132.115 53.0967 133.03 53.0967H140.479C141.394 53.0967 141.761 53.4021 141.761 54.2571ZM147.622 52.7913C146.218 52.7302 144.874 53.2799 143.898 54.3182C142.86 55.4176 142.371 56.8834 142.432 58.3492C142.371 59.815 142.921 61.2808 144.02 62.3191C145.058 63.3574 146.523 63.9071 147.988 63.846C149.453 63.846 150.796 63.2963 151.895 62.3802L151.224 61.2808C150.369 62.1359 149.209 62.5634 147.988 62.5634C146.889 62.5634 145.851 62.197 145.119 61.403C144.325 60.609 143.898 59.4485 143.898 58.2881H152.017C152.017 57.9827 152.078 57.7384 152.078 57.6163C152.139 56.3337 151.712 55.1122 150.918 54.135C150.125 53.2799 148.904 52.7302 147.622 52.7913ZM144.02 57.3109C144.386 55.2343 145.851 54.0128 147.622 54.0128C149.27 54.0128 150.552 55.2343 150.613 57.3109H144.02ZM163.495 62.3802H164.35V63.6017H162.885C161.969 63.6017 161.602 63.2352 161.602 62.3191V54.7457C161.602 54.6846 161.602 54.6846 161.602 54.6236C161.541 54.4403 161.358 54.2571 161.114 54.3182H155.742V63.6628H154.337V54.3182H152.994V53.0967H161.786C162.701 53.0967 163.068 53.4631 163.068 54.3793V61.9526C163.007 61.9526 163.007 62.0137 163.007 62.0748C163.068 62.258 163.251 62.4413 163.495 62.3802ZM174.118 62.3802H174.973V63.6017H173.507C172.592 63.6017 172.225 63.2352 172.225 62.3191V54.7457C172.225 54.6846 172.225 54.6846 172.225 54.6236C172.164 54.4403 171.981 54.2571 171.737 54.3182H168.868V55.1733C168.868 55.6008 168.868 56.0894 168.806 56.578C168.745 57.8606 168.562 59.0821 168.196 60.3036C167.585 62.0748 166.609 63.7238 164.716 63.7238V62.4413C165.815 62.4413 166.609 61.2197 166.975 59.6318C167.341 58.1049 167.524 56.6391 167.524 55.1122V54.3182H166.181V53.0967H172.347C173.263 53.0967 173.63 53.4631 173.63 54.3793V61.9526C173.63 61.9526 173.63 62.0137 173.63 62.0748C173.691 62.258 173.874 62.4413 174.118 62.3802ZM181.383 52.7913C179.918 52.7302 178.453 53.341 177.415 54.3793C176.377 55.4176 175.766 56.8223 175.827 58.2881C175.766 59.7539 176.377 61.2197 177.415 62.258C179.613 64.3957 183.092 64.3957 185.29 62.258C186.328 61.2197 186.939 59.7539 186.878 58.2881C186.939 56.8223 186.328 55.4176 185.29 54.3793C184.314 53.341 182.909 52.7913 181.383 52.7913ZM184.314 61.3419C182.787 62.9299 180.162 62.9909 178.575 61.464C178.514 61.403 178.514 61.403 178.453 61.3419C177.659 60.5479 177.232 59.3875 177.232 58.2881C177.171 57.1887 177.659 56.0894 178.453 55.2954C180.04 53.7074 182.665 53.6464 184.252 55.2954C185.046 56.0894 185.473 57.1887 185.473 58.2881C185.535 59.4485 185.107 60.5479 184.314 61.3419ZM55.6785 40.0265C54.8848 40.6983 53.9691 41.248 52.9923 41.5534C51.8323 41.9198 50.6113 42.1031 49.3902 42.1031C46.5819 42.1031 43.8956 41.248 41.6367 39.599L44.0788 34.9572C44.8724 35.6901 45.7272 36.2398 46.6429 36.6673C47.4366 37.0338 48.2913 37.217 49.146 37.217C49.8786 37.2781 50.6113 37.0338 51.2218 36.5452C51.6491 36.1787 51.8933 35.629 51.8933 35.0794C51.8933 34.774 51.8323 34.4686 51.7102 34.2243C51.527 33.98 51.3439 33.7357 51.0997 33.5525C50.7944 33.3082 50.4281 33.1249 50.0618 33.0028C49.6344 32.8196 49.085 32.6363 48.4745 32.392C47.7418 32.1477 47.0092 31.9034 46.2766 31.598C45.6051 31.3537 44.9335 30.9873 44.384 30.4987C43.8346 30.0101 43.3462 29.3993 43.0409 28.7275C42.6746 27.8724 42.4914 26.9563 42.5525 26.0402C42.5525 25.0019 42.7356 23.9636 43.1019 23.0475C43.4683 22.1924 43.9567 21.4595 44.6282 20.7877C45.2998 20.1158 46.0935 19.6272 47.0092 19.3218C48.0471 18.9554 49.085 18.7722 50.1839 18.7722C51.3439 18.7722 52.5038 18.8943 53.6028 19.1997C54.7627 19.5051 55.9227 19.9326 57.0216 20.5434L54.7627 25.0019C54.1522 24.5743 53.5417 24.2079 52.8702 23.9025C52.2596 23.6582 51.6491 23.5361 51.0386 23.5361C50.367 23.5361 49.7565 23.7193 49.2071 24.0857C48.7187 24.4522 48.4745 24.9408 48.4745 25.4905C48.4745 25.8569 48.5966 26.2234 48.8408 26.4677C49.085 26.7731 49.3902 26.9563 49.7565 27.1395C50.1839 27.3227 50.6113 27.506 51.0386 27.6281C51.527 27.7503 51.9544 27.8724 52.4428 28.0557C53.9691 28.4832 55.4343 29.3382 56.5332 30.5598C57.449 31.7202 57.8764 33.186 57.8153 34.6518C57.8764 35.6901 57.6322 36.7284 57.2658 37.7056C56.8995 38.6217 56.289 39.4157 55.6785 40.0265ZM66.0572 38.0721H74.7876L76.1917 42.1641H82.1748L73.6276 19.6272H67.2172L58.67 42.1641H64.653L66.0572 38.0721ZM70.4529 26.5898L73.0171 33.9189H67.8888L70.4529 26.5898ZM105.985 42.1641H100.979L89.623 28.361V42.1641H83.5179V19.6272H88.463L99.8796 33.3692V19.6272H105.985V42.1641ZM116.241 42.1641H110.075V19.6272H116.241V28.9107L123.751 19.6272H131.321L121.919 30.2544L132.176 42.1641H124.239L116.241 32.392V42.1641ZM135.411 38.805C136.51 39.9043 137.854 40.6983 139.258 41.3091C142.432 42.4695 145.912 42.4695 149.087 41.3091C150.552 40.7594 151.834 39.9043 152.994 38.805C154.093 37.7667 154.948 36.4841 155.497 35.0794C156.718 32.1477 156.718 28.8496 155.497 25.918C154.887 24.5133 154.032 23.2918 152.994 22.1924C151.895 21.093 150.552 20.299 149.087 19.7494C145.912 18.5279 142.432 18.5279 139.258 19.7494C133.275 22.1313 130.405 28.9107 132.786 34.8351C133.397 36.3009 134.251 37.6445 135.411 38.805ZM138.464 28.0557C139.136 26.5898 140.296 25.4294 141.761 24.8797C144.081 23.9636 146.706 24.4522 148.537 26.1623C149.087 26.712 149.575 27.3838 149.881 28.1167C150.552 29.6436 150.552 31.4148 149.881 33.0028C149.575 33.7357 149.087 34.4075 148.537 34.9572C147.988 35.5069 147.255 35.9344 146.523 36.2398C144.996 36.8506 143.287 36.8506 141.761 36.2398C141.028 35.9344 140.357 35.5069 139.807 34.9572C139.258 34.4075 138.769 33.7357 138.464 33.0028C137.792 31.3537 137.792 29.6436 138.464 28.0557ZM166.548 29.155L164.594 42.1641H158.733L162.579 19.6272H168.379L172.897 31.598L177.354 19.6272H183.154L187 42.1641H181.139L179.185 29.155L173.874 42.1641H171.554L166.548 29.155Z" fill="white"/>
<path d="M15.6291 12.4203L23.1384 21.7038C23.6268 22.3145 23.9321 23.1085 23.9321 23.9025V28.9718C23.9321 29.8268 23.6268 30.6208 23.0774 31.2316L21.0016 33.6135C20.3301 34.3464 19.4143 34.835 18.3764 34.835H12.8818C11.905 34.835 10.9282 34.4075 10.2566 33.6135L8.18087 31.2316C7.63141 30.6208 7.32615 29.8268 7.32615 28.9718V23.9025C7.32615 23.1085 7.57036 22.3145 8.11982 21.7038L15.6291 12.4203ZM15.6291 0.754822L1.15997 18.5889C0.427359 19.5661 0 20.6655 0 21.887V31.0483C0 32.2699 0.427359 33.4914 1.28208 34.4686L6.41038 40.3319C7.3872 41.4923 8.85243 42.103 10.3177 42.103H20.9406C22.4669 42.103 23.871 41.4312 24.8479 40.3319L29.9762 34.4686C30.7698 33.5525 31.2582 32.3309 31.2582 31.0483V21.887C31.2582 20.6655 30.8309 19.5661 30.0983 18.5889L15.6291 0.754822Z" fill="#FF7735"/>
</svg>
