<svg width="136" height="180" viewBox="0 0 136 180" fill="none" xmlns="http://www.w3.org/2000/svg">
<path d="M68.1719 50.9585L100.604 91.1476C102.713 93.7916 104.031 97.2288 104.031 100.666V122.611C104.031 126.313 102.713 129.75 100.34 132.394L91.375 142.706C88.4746 145.879 84.5195 147.994 80.0371 147.994H56.3066C52.0879 147.994 47.8691 146.143 44.9687 142.706L36.0039 132.394C33.6309 129.75 32.3125 126.313 32.3125 122.611V100.666C32.3125 97.2288 33.3672 93.7916 35.7402 91.1476L68.1719 50.9585ZM68.1719 0.457794L5.68164 77.6631C2.51758 81.8935 0.671875 86.6528 0.671875 91.9408L0.671875 131.601C0.671875 136.889 2.51758 142.177 6.20898 146.408L28.3574 171.79C32.5762 176.814 38.9043 179.458 45.2324 179.458H91.1113C97.7031 179.458 103.768 176.549 107.986 171.79L130.135 146.408C133.562 142.442 135.672 137.154 135.672 131.601V91.9408C135.672 86.6528 133.826 81.8935 130.662 77.6631L68.1719 0.457794Z" fill="#FF7735"/>
</svg>
