<svg width="58" height="58" viewBox="0 0 58 58" fill="none" xmlns="http://www.w3.org/2000/svg">
<path d="M55.793 11.7231C56.7949 12.7251 57.4629 14.1724 57.4629 15.5083V52.5806C57.4629 55.4751 55.0137 57.813 52.1191 57.813H21.8379C21.5039 57.813 21.2812 57.813 20.9473 57.7017L14.7129 54.4731L8.36719 57.7017C7.81055 57.9243 7.14258 57.9243 6.58594 57.5903C6.0293 57.2563 5.80664 56.6997 5.80664 56.0317V44.4536C5.58398 44.4536 5.47266 44.4536 5.25 44.3423C4.4707 44.1196 3.91406 43.563 3.69141 42.7837C3.02344 40.1118 3.02344 40.1118 1.01953 38.1079C0.462891 37.5513 0.240234 36.6606 0.462891 35.8813C1.24219 33.2095 1.24219 33.2095 0.462891 30.5376C0.240234 29.7583 0.462891 28.8677 1.01953 28.311C3.02344 26.3071 3.02344 26.4185 3.69141 23.6353C3.91406 22.856 4.4707 22.2993 5.25 22.0767C8.0332 21.2974 7.92188 21.4087 9.92578 19.2935C10.2598 18.9595 10.8164 18.7368 11.373 18.7368C11.5957 18.7368 11.8184 18.7368 11.9297 18.7368C13.377 19.1821 14.0449 19.2935 14.7129 19.2935V6.26807C14.7129 3.26221 17.0508 0.924316 20.0566 0.812988H42.7676C44.1035 0.812988 45.5508 1.48096 46.5527 2.48291L55.793 11.7231ZM43.2129 4.48682V15.1743H53.7891C53.6777 14.8403 53.5664 14.5063 53.3438 14.2837L43.9922 4.93213C43.7695 4.70947 43.4355 4.59814 43.2129 4.48682ZM4.13672 36.104C5.91797 37.9966 6.25195 38.6646 6.91992 41.1138C8.58984 41.5591 9.5918 42.0044 11.1504 43.3403C12.2637 42.7837 13.377 42.561 14.7129 42.561C15.9375 42.561 17.0508 42.7837 18.1641 43.229C19.7227 41.8931 20.7246 41.5591 22.3945 41.1138C23.0625 38.6646 23.5078 37.8853 25.1777 36.104C24.5098 33.6548 24.5098 32.7642 25.1777 30.3149C23.3965 28.4224 23.0625 27.7544 22.3945 25.3052C19.9453 24.6372 19.166 24.1919 17.4961 22.4106C16.3828 22.7446 15.6035 22.856 14.7129 22.856C13.7109 22.856 12.9316 22.7446 11.8184 22.4106C10.0371 24.1919 9.36914 24.6372 6.91992 25.3052C6.25195 27.7544 5.80664 28.5337 4.13672 30.3149C4.69336 32.7642 4.69336 33.6548 4.13672 36.104ZM15.4922 50.9106L20.0566 53.2485V46.4575C19.9453 46.5688 19.9453 46.5688 19.9453 46.5688C19.5 47.0142 19.0547 47.1255 18.498 47.1255C18.0527 47.1255 17.7188 47.1255 17.2734 46.7915C16.4941 46.3462 15.6035 46.1235 14.7129 46.1235C13.7109 46.1235 12.8203 46.3462 12.041 46.9028C11.5957 47.0142 11.2617 47.1255 10.8164 47.1255C10.3711 47.1255 9.81445 47.0142 9.36914 46.5688C9.36914 46.5688 9.36914 46.5688 9.36914 46.4575V53.2485L13.8223 50.9106C14.3789 50.688 14.9355 50.688 15.4922 50.9106ZM53.9004 52.5806V18.6255H42.3223C40.7637 18.6255 39.6504 17.5122 39.6504 16.0649V4.37549H20.0566C19.0547 4.37549 18.2754 5.26611 18.2754 6.26807V18.7368C18.6094 18.8481 19.0547 18.9595 19.3887 19.2935C21.3926 21.4087 21.3926 21.2974 24.0645 22.0767C24.8438 22.2993 25.4004 22.856 25.623 23.6353C26.291 26.3071 26.291 26.3071 28.2949 28.311C28.8516 28.8677 29.0742 29.7583 28.8516 30.5376C28.0723 33.2095 28.0723 33.2095 28.8516 35.8813C29.0742 36.6606 28.8516 37.5513 28.2949 38.1079C26.291 40.1118 26.291 40.0005 25.623 42.7837C25.4004 43.563 24.8438 44.1196 24.0645 44.3423C23.8418 44.4536 23.7305 44.4536 23.6191 44.4536V54.3618H52.1191C53.0098 54.3618 53.9004 53.4712 53.9004 52.5806Z" fill="#FF7735"/>
</svg>
