<svg width="19" height="17" viewBox="0 0 19 17" fill="none" xmlns="http://www.w3.org/2000/svg">
<path d="M7.09819 1.26562V12.2656M12.4971 4.8656V15.8656M2.10421 4.76559L6.6033 1.43559C6.75022 1.32806 6.92228 1.27075 7.0982 1.27075C7.27412 1.27075 7.44618 1.32806 7.5931 1.43559L12.0022 4.69559C12.1491 4.80312 12.3212 4.86042 12.4971 4.86042C12.673 4.86042 12.8451 4.80312 12.992 4.69559L16.5013 2.10559C16.6366 2.00654 16.7935 1.94994 16.9554 1.94177C17.1173 1.9336 17.2781 1.97417 17.421 2.05918C17.5638 2.14419 17.6834 2.2705 17.767 2.42476C17.8506 2.57902 17.8952 2.7555 17.896 2.93559V11.5656C17.8967 11.732 17.8601 11.896 17.7894 12.0426C17.7187 12.1893 17.6161 12.3141 17.4911 12.4056L12.992 15.7356C12.8451 15.8431 12.673 15.9004 12.4971 15.9004C12.3212 15.9004 12.1491 15.8431 12.0022 15.7356L7.5931 12.4756C7.44618 12.3681 7.27412 12.3108 7.0982 12.3108C6.92228 12.3108 6.75022 12.3681 6.6033 12.4756L3.09401 15.0656C2.95612 15.1667 2.79585 15.2236 2.63077 15.2302C2.46569 15.2368 2.30217 15.1927 2.15812 15.1029C2.01408 15.013 1.89507 14.8808 1.81413 14.7208C1.7332 14.5608 1.69347 14.379 1.69929 14.1956V5.56559C1.7044 5.406 1.74383 5.25009 1.81428 5.11091C1.88473 4.97173 1.98414 4.85332 2.10421 4.76559Z" stroke="white" stroke-width="1.5" stroke-linecap="round" stroke-linejoin="round"/>
</svg>
