<svg width="19" height="19" viewBox="0 0 19 19" fill="none" xmlns="http://www.w3.org/2000/svg">
<path d="M3.47015 1.11545L2.00015 2.60545C1.60347 2.99789 1.28856 3.4651 1.07363 3.98004C0.85871 4.49499 0.748047 5.04745 0.748047 5.60545C0.748047 6.16345 0.85871 6.71591 1.07363 7.23085C1.28856 7.7458 1.60347 8.21301 2.00015 8.60545L9.47015 16.0654C9.86259 16.4621 10.3298 16.777 10.8447 16.992C11.3597 17.2069 11.9122 17.3176 12.4702 17.3176C13.0282 17.3176 13.5806 17.2069 14.0956 16.992C14.6105 16.777 15.0777 16.4621 15.4702 16.0654L17.0002 14.5955C17.1046 14.4973 17.1878 14.3787 17.2447 14.2472C17.3016 14.1156 17.3309 13.9738 17.3309 13.8304C17.3309 13.6871 17.3016 13.5453 17.2447 13.4137C17.1878 13.2822 17.1046 13.1636 17.0002 13.0654L14.7602 10.8154C14.56 10.6188 14.2907 10.5086 14.0102 10.5086C13.7296 10.5086 13.4603 10.6188 13.2602 10.8154L12.5102 11.5654C12.31 11.7621 12.0407 11.8723 11.7602 11.8723C11.4796 11.8723 11.2103 11.7621 11.0102 11.5654L6.47015 7.06545C6.2735 6.86535 6.1633 6.59601 6.1633 6.31545C6.1633 6.03489 6.2735 5.76555 6.47015 5.56545L7.22015 4.81545C7.41681 4.61535 7.527 4.34601 7.527 4.06545C7.527 3.78489 7.41681 3.51555 7.22015 3.31545L5.00015 1.11545C4.90197 1.01102 4.78344 0.927793 4.65188 0.870905C4.52031 0.814016 4.37849 0.784668 4.23515 0.784668C4.09181 0.784668 3.94999 0.814016 3.81843 0.870905C3.68686 0.927793 3.56833 1.01102 3.47015 1.11545Z" stroke="white" stroke-width="1.5" stroke-linecap="round" stroke-linejoin="round"/>
</svg>
