<svg width="18" height="19" viewBox="0 0 18 19" fill="none" xmlns="http://www.w3.org/2000/svg">
<path d="M9 0.129395C4.02823 0.129395 0 4.15762 0 9.12939C0 14.1012 4.02823 18.1294 9 18.1294C13.9718 18.1294 18 14.1012 18 9.12939C18 4.15762 13.9718 0.129395 9 0.129395ZM9 16.3875C4.98992 16.3875 1.74194 13.1395 1.74194 9.12939C1.74194 5.11931 4.98992 1.87133 9 1.87133C13.0101 1.87133 16.2581 5.11931 16.2581 9.12939C16.2581 13.1395 13.0101 16.3875 9 16.3875ZM11.2427 12.5987L8.16169 10.3596C8.04919 10.2762 7.98387 10.1455 7.98387 10.0076V4.04875C7.98387 3.80923 8.17984 3.61327 8.41935 3.61327H9.58064C9.82016 3.61327 10.0161 3.80923 10.0161 4.04875V9.19109L12.4403 10.9548C12.6363 11.0963 12.6762 11.3685 12.5347 11.5645L11.8524 12.5044C11.7109 12.6967 11.4387 12.7403 11.2427 12.5987Z" fill="white"/>
</svg>
