<svg width="201" height="65" viewBox="0 0 201 65" fill="none" xmlns="http://www.w3.org/2000/svg">
<path fill-rule="evenodd" clip-rule="evenodd" d="M0.966797 64.6756H6.54785L17.3316 36.4128H0.966797V64.6756ZM22.6717 64.6756H15.9509L25.1139 40.9228H31.2757L22.6717 64.6756ZM38.558 64.6756H32.0754L39.3582 45.4328H46.1002L38.558 64.6756ZM60.7778 64.6756H51.3557C51.7761 64.384 53.972 62.8544 57.4836 60.2936C57.4836 60.2936 58.2812 63.4409 60.7778 64.6756ZM76.5272 64.6756H67.9677C68.3961 64.2759 69.684 63.1666 73.4084 60.1528C73.4084 60.1528 73.6225 63.2647 76.5272 64.6756ZM88.2529 64.6756H84.7569C85.1718 64.2728 86.4244 63.1384 90.0134 60.1848L88.2529 64.6756ZM107.119 64.6756H97.7154L102.917 51.2031L107.119 64.6756ZM125.31 64.6756H117.075L121.703 60.2232C122.308 63.2508 124.162 64.3089 125.31 64.6756ZM145.457 64.6756H136.899L141.689 60.3639C142.014 62.8901 144.424 64.2174 145.457 64.6756ZM165.787 64.6756H156.713L161.355 60.2232C161.845 63.5524 164.862 64.4708 165.787 64.6756ZM181.913 64.6756H172.55L177.059 60.2232C177.685 63.5524 180.923 64.4708 181.913 64.6756ZM186.902 57.5428H200.967V0.767517H0.966797V28.2435H29.6753L28.0548 33.035H43.6195L41.8589 37.9609H57.5636L50.3615 57.5428H57.7037L63.4254 43.4561C63.4254 43.4561 65.6261 37.9609 70.7676 37.9609H90.5936L83.5514 57.6835H90.8936L102.197 28.2435H111.14L104.238 47.6846L114.521 37.9609H125.244L112.32 50.4994L114.221 57.8242L122.163 57.7539L130.085 37.8202H139.028L131.846 57.6835H142.129L147.251 44.3005H141.229L143.589 37.8202H149.311L153.272 28.2435H162.515L158.994 37.5387H164.436L162.235 44.1598H156.353L151.512 57.5428H161.795L166.636 44.7227C166.636 44.7227 168.697 38.108 174.719 37.9609H194.085L186.902 57.5428ZM177.14 57.8242L182.121 45.4328H175.799L170.818 57.8242H177.14ZM73.8085 57.8242L78.79 45.4328H72.4881L67.4866 57.8242H73.8085ZM133.447 28.1924L130.806 35.5172H139.768L142.409 28.1924H133.447Z" fill="#101010"/>
<path d="M190.544 24.2581H189.104V22.9083H190.664C190.964 22.9083 191.484 22.9594 191.484 23.5736C191.484 24.1621 191.004 24.2581 190.544 24.2581ZM192.084 25.9341L192.044 25.2177C192.024 24.6675 191.764 24.5651 191.504 24.4692C191.784 24.322 192.125 24.1045 192.125 23.516C192.125 22.678 191.364 22.4477 190.604 22.4477H188.483V26.4203H189.104V24.7187H190.604C191.364 24.7187 191.444 25.1025 191.444 25.4288C191.444 25.5759 191.464 26.1772 191.544 26.4203H192.325V26.3308C192.124 26.2348 192.084 26.158 192.084 25.9341Z" fill="#101010"/>
<path d="M190.264 27.7701C189.363 27.7701 188.523 27.4247 187.883 26.7914C187.243 26.158 186.883 25.32 186.883 24.4244C186.883 23.5288 187.243 22.6908 187.883 22.0574C188.523 21.4241 189.363 21.0787 190.264 21.0787C191.164 21.0787 192.024 21.4241 192.644 22.0574C193.284 22.6908 193.645 23.5288 193.645 24.4244C193.645 26.2732 192.124 27.7701 190.264 27.7701ZM192.924 21.8015C192.204 21.0978 191.264 20.714 190.264 20.714C188.203 20.714 186.522 22.3773 186.522 24.4244C186.522 25.416 186.903 26.35 187.623 27.0537C188.323 27.7509 189.263 28.1412 190.264 28.1412C191.264 28.1412 192.204 27.7509 192.924 27.0537C193.625 26.35 194.005 25.416 194.005 24.4244C194.005 23.4328 193.625 22.4988 192.924 21.8015Z" fill="#101010"/>
</svg>
