<svg width="201" height="44" viewBox="0 0 201 44" fill="none" xmlns="http://www.w3.org/2000/svg">
<path d="M1.06222 1.71152H21.9895V25.0579H1.06222V1.71152ZM22.7871 0.914764H0.264648V25.8571H22.7871V0.914764Z" fill="#101010"/>
<path d="M199.835 31.8326H0.262695V43.7908H199.835V31.8326Z" fill="#101010"/>
<path d="M62.0613 17.2212L63.8182 10.722L65.5892 17.2212H62.0613ZM70.4819 6.97108H75.9731V0.915982H70.0902V5.91307L68.2367 0.915982L59.4045 0.913544L57.5453 5.92892V0.915982H51.6637V6.97108H57.1593L51.6698 21.7791L44.9943 11.49L51.3196 0.91395H41.4623L37.9641 8.57921V0.913544H28.7402V25.8584H37.8759V15.9312L43.9464 25.858H59.4362L60.5028 22.3264H67.1401L68.2115 25.858H77.4853L70.4819 6.97108Z" fill="#101010"/>
<path d="M141.918 0.913544V10.3584H137.104L137.106 0.913544H128.314L128.312 25.8559H137.104V16.4139H141.918V25.8559H150.702V0.913544H141.918Z" fill="#101010"/>
<path d="M174.623 19.8H162.478V16.4139H172.385L172.384 10.3584H162.478V6.96864H174.623V0.913544H153.438V25.8559L174.623 25.8584V19.8Z" fill="#101010"/>
<path d="M4.22132 11.0861H7.55907L11.4717 17.5146L15.3962 11.0861H18.7709L11.5148 19.5002L4.22132 11.0861ZM8.97341 7.32823L11.4933 12.036L14.0002 7.32823H17.0734L11.4803 13.6206L5.89405 7.32823H8.97341ZM7.56029 3.55207H15.4116L11.5347 8.38055L7.56029 3.55207ZM15.6786 10.6241L17.9604 6.88699H14.2358L16.2498 3.10474H6.71397L8.73735 6.88699H5.00344L7.27832 10.6241H3.31445L11.4957 24.0593L19.6506 10.6241H15.6786Z" fill="#101010"/>
<path d="M87.5793 6.96865C87.7458 6.96865 91.1088 6.96865 91.1088 6.96865C91.1742 6.97596 92.9229 7.18277 92.9229 9.25775C92.9229 9.93911 92.7446 10.4636 92.3886 10.8171C91.9255 11.2779 91.3006 11.3104 91.121 11.3092C91.121 11.3092 87.7463 11.3079 87.5797 11.3079C87.5793 11.1434 87.5793 7.1332 87.5793 6.96865ZM101.93 25.706C101.288 25.1051 101.172 22.6957 101.169 22.6458C101.169 22.6279 101.182 22.2208 101.182 21.4829C101.182 20.9056 101.174 20.1295 101.145 19.1849C101.039 15.5977 98.642 14.6689 97.7193 14.4434C98.8955 14.0208 101.483 12.4509 101.483 8.92214C101.483 8.80594 101.481 8.68811 101.475 8.56744C101.363 6.21253 100.561 4.3537 99.0906 3.03973C96.4586 0.688059 92.5414 0.912743 92.502 0.915587H78.7715V25.858L87.5789 25.8567C87.5789 25.8567 87.5801 17.3935 87.5801 17.222C87.7418 17.222 89.8655 17.222 89.8655 17.222C91.9092 17.222 92.064 19.3754 92.0713 19.4669C92.0725 19.4925 92.2737 21.8819 92.2891 23.2808C92.3106 25.3509 92.8912 25.821 92.9152 25.8389L92.9392 25.858L102.088 25.8567L101.93 25.706Z" fill="#101010"/>
<path d="M185.753 6.96863C185.919 6.96863 189.287 6.97107 189.287 6.97107C189.352 6.97839 191.097 7.18194 191.097 9.25773C191.097 9.93788 190.917 10.4624 190.563 10.8151C190.098 11.2762 189.475 11.3091 189.295 11.3079C189.295 11.3079 185.919 11.3079 185.753 11.3079C185.753 11.1434 185.753 7.13319 185.753 6.96863ZM200.104 25.7048C199.463 25.1039 199.345 22.6957 199.344 22.6433C199.344 22.6266 199.357 22.2195 199.357 21.4817C199.357 20.9056 199.348 20.1283 199.32 19.1837C199.214 15.5976 196.817 14.6676 195.894 14.4433C197.07 14.0196 199.658 12.4508 199.658 8.92091C199.658 8.80471 199.655 8.68688 199.649 8.56621C199.538 6.21251 198.734 4.35247 197.264 3.03849C194.632 0.686823 190.716 0.911507 190.677 0.914351H176.945L176.942 25.8567H185.752C185.752 25.8567 185.755 17.3923 185.755 17.2208C185.916 17.2208 188.04 17.2208 188.04 17.2208C190.084 17.2208 190.239 19.3742 190.245 19.4656C190.247 19.4912 190.448 21.8795 190.464 23.2796C190.485 25.3497 191.065 25.8198 191.09 25.8389L191.114 25.8579L200.263 25.8567L200.104 25.7048Z" fill="#101010"/>
<path d="M126.68 14.922L118.757 14.9232C118.388 18.8253 116.586 19.722 115.019 19.7415V19.7431C115.013 19.7431 115.008 19.7415 115.002 19.7415C115 19.7415 115 19.7415 114.999 19.7415C113.259 19.7208 111.186 18.6205 111.151 13.5158C111.133 10.8082 111.676 8.82178 112.721 7.76824C113.31 7.17586 114.066 6.87235 114.967 6.86301V6.85935C115.889 6.85935 116.659 7.16529 117.257 7.76702C117.993 8.50812 118.48 9.71483 118.696 11.3083C118.696 11.3108 126.706 11.3083 126.707 11.3083C126.669 7.68211 125.441 4.86523 123.053 2.93571C121.028 1.30035 118.217 0.36748 114.919 0.238277C111.692 0.111511 108.672 1.23859 106.42 3.4123C103.887 5.85619 102.501 9.41376 102.515 13.4313C102.528 17.4248 103.771 20.7601 106.105 23.0801C108.344 25.305 111.448 26.4857 115.082 26.495C118.488 26.5044 121.509 25.3655 123.591 23.2869C125.615 21.2668 126.684 18.419 126.682 15.0508L126.68 14.922Z" fill="#101010"/>
</svg>
