<svg width="201" height="46" viewBox="0 0 201 46" fill="none" xmlns="http://www.w3.org/2000/svg">
<path fill-rule="evenodd" clip-rule="evenodd" d="M86.022 22.456C87.2306 21.9848 88.2674 21.153 88.9938 20.0718C89.7202 18.9906 90.1015 17.7117 90.0867 16.4062C90.0867 10.9613 86.253 8.26215 80.9874 8.26215H67.1768V37.8691H82.1883C86.8072 37.8691 91.3338 34.6115 91.3338 29.632C91.3338 23.7125 86.022 22.5118 86.022 22.456ZM74.3823 14.4051H79.7403C80.0834 14.3836 80.4273 14.4306 80.7523 14.5432C81.0774 14.6559 81.3772 14.832 81.6346 15.0615C81.892 15.2911 82.102 15.5695 82.2525 15.8809C82.403 16.1922 82.491 16.5305 82.5116 16.8762C82.5116 16.9817 82.5116 17.0887 82.5116 17.1973C82.4971 17.9251 82.1976 18.6177 81.6785 19.1241C81.1595 19.6306 80.4628 19.9098 79.7403 19.9011H74.3361L74.3823 14.4051ZM79.7865 31.6703H74.4285V25.8532H79.6479C82.2807 25.8532 83.5278 27.0166 83.5278 28.7385C83.5278 30.8885 81.9574 31.6703 79.7865 31.6703Z" fill="#101010"/>
<path fill-rule="evenodd" clip-rule="evenodd" d="M107.223 7.51755C98.7238 7.51755 93.7354 14.3585 93.7354 23.0144C93.7354 31.6703 98.7238 38.5113 107.223 38.5113C115.721 38.5113 120.71 31.7169 120.71 23.0144C120.71 14.312 115.768 7.51755 107.223 7.51755ZM107.223 31.4377C103.066 31.4377 100.987 27.6681 100.987 23.0144C100.987 18.3607 103.066 14.6377 107.223 14.6377C111.38 14.6377 113.504 18.4072 113.504 23.0144C113.504 27.7147 111.38 31.4377 107.223 31.4377Z" fill="#101010"/>
<path fill-rule="evenodd" clip-rule="evenodd" d="M136.369 19.8964L135.353 19.6637C132.858 19.1518 130.872 18.5003 130.872 16.6854C130.872 14.7308 132.766 13.9397 134.429 13.9397C135.563 13.9567 136.682 14.2093 137.715 14.6818C138.748 15.1542 139.674 15.8363 140.433 16.6854L145.006 12.1247C142.928 9.75133 139.556 7.47101 134.29 7.47101C128.101 7.47101 123.39 10.9613 123.39 16.7784C123.39 22.0837 127.177 24.6898 131.796 25.667L132.812 25.8997C136.646 26.6909 138.078 27.2958 138.078 29.1573C138.078 30.9257 136.507 32.0892 134.106 32.0892C131.242 32.0892 128.655 30.8327 126.669 28.2731L122.004 32.9268C124.591 36.0448 127.87 38.4648 134.198 38.4648C139.694 38.4648 145.56 35.3002 145.56 28.8316C145.653 22.0837 140.572 20.7806 136.369 19.8964Z" fill="#101010"/>
<path fill-rule="evenodd" clip-rule="evenodd" d="M162.004 31.4377C158.771 31.4377 155.399 28.7385 155.399 22.8283C155.399 17.5696 158.54 14.6377 161.819 14.6377C164.406 14.6377 165.93 15.8477 167.131 17.9419L173.043 13.9862C170.087 9.47211 166.577 7.56409 161.727 7.56409C152.858 7.56409 148.055 14.4981 148.055 22.8748C148.055 31.6703 153.366 38.5578 161.634 38.5578C167.454 38.5578 170.226 36.5102 173.228 32.1357L167.269 28.0963C166.069 30.0415 164.775 31.4377 162.004 31.4377Z" fill="#101010"/>
<path fill-rule="evenodd" clip-rule="evenodd" d="M192.766 8.26215V19.1518H183.851V8.26215H176.138V37.8598H183.851V26.179H192.766V37.8598H200.48V8.26215H192.766Z" fill="#101010"/>
<path d="M22.7418 0.723145C18.3385 0.723145 14.0342 2.03869 10.373 4.50344C6.71181 6.96818 3.85827 10.4714 2.17322 14.5701C0.488162 18.6688 0.0472748 23.1789 0.906308 27.5301C1.76534 31.8813 3.88571 35.8781 6.99929 39.0151C10.1129 42.1521 14.0798 44.2885 18.3985 45.154C22.7171 46.0195 27.1935 45.5753 31.2616 43.8775C35.3297 42.1798 38.8067 39.3048 41.253 35.616C43.6994 31.9273 45.0051 27.5905 45.0051 23.1541C45.0051 17.205 42.6595 11.4996 38.4843 7.29301C34.3091 3.08639 28.6464 0.723145 22.7418 0.723145ZM22.7418 43.4908C18.7496 43.4908 14.8471 42.2981 11.5278 40.0634C8.20839 37.8288 5.62126 34.6527 4.09352 30.9366C2.56578 27.2205 2.16606 23.1315 2.94489 19.1866C3.72373 15.2416 5.64614 11.618 8.46903 8.77381C11.2919 5.92967 14.8885 3.99278 18.804 3.20808C22.7194 2.42338 26.7779 2.82612 30.4662 4.36536C34.1545 5.9046 37.3069 8.51121 39.5248 11.8556C41.7427 15.1999 42.9266 19.1318 42.9266 23.1541C42.9253 28.5473 40.7983 33.7193 37.0132 37.533C33.2281 41.3466 28.0948 43.4896 22.7418 43.4908Z" fill="#101010"/>
<path d="M31.9337 9.14636H30.4094V16.825H15.1208V9.14636H13.5503C11.2501 10.6752 9.36238 12.7552 8.05624 15.1999C6.75011 17.6446 6.06641 20.3777 6.06641 23.1541C6.06641 25.9304 6.75011 28.6635 8.05624 31.1082C9.36238 33.5529 11.2501 35.6329 13.5503 37.1617H15.1208V29.4924H30.4094V37.171H31.9337C34.2349 35.6429 36.1236 33.5632 37.4304 31.1184C38.7373 28.6736 39.4214 25.9402 39.4214 23.1634C39.4214 20.3865 38.7373 17.6532 37.4304 15.2084C36.1236 12.7636 34.2349 10.6838 31.9337 9.15567V9.14636ZM12.996 34.1461C11.5635 32.8637 10.3958 31.3096 9.55947 29.5724C8.72314 27.8353 8.23463 25.9492 8.12183 24.0218C8.00902 22.0945 8.27413 20.1636 8.90202 18.3395C9.52991 16.5154 10.5083 14.8337 11.7813 13.3906C12.1628 12.9611 12.5684 12.5541 12.996 12.1713V34.1461ZM30.4094 27.3517H15.1208V18.9192H30.4094V27.3517ZM32.488 34.0996V29.4459V16.825V12.1713C33.917 13.4641 35.0791 15.028 35.908 16.7735C36.7369 18.519 37.2163 20.412 37.3188 22.3442C37.4213 24.2765 37.145 26.2101 36.5055 28.0347C35.866 29.8593 34.8759 31.5391 33.5919 32.978C33.2426 33.3672 32.8742 33.7384 32.488 34.0903V34.0996Z" fill="#101010"/>
</svg>
