<svg width="114" height="60" viewBox="0 0 114 60" fill="none" xmlns="http://www.w3.org/2000/svg">
<path d="M89.3381 1.80335L81.2272 34.797L73.0934 1.80335H49.6006V13.9868C46.7461 3.3252 36.2736 0.651199 26.916 0.4993C15.5064 0.350267 2.86434 5.29417 2.42584 20.3809H18.2062C18.2062 15.8268 22.3762 13.2187 26.3142 13.2846C31.1491 13.2445 33.3732 15.3081 33.485 18.5209C33.3187 21.3095 31.6736 23.2498 26.3543 23.2498H21.0464V34.198H25.8642C28.6013 34.198 32.4102 35.6884 32.5592 39.5862C32.7427 44.232 29.5126 46.2726 25.5375 46.3127C18.4412 46.049 16.6098 40.5979 16.6098 35.9091H0.230469C0.299253 39.0674 0.196076 59.6541 25.8671 59.5022C38.1652 59.6139 47.1158 54.4436 49.6407 47.3158V58.2411H65.4383V22.6451L74.1739 58.2411H88.2891L97.0563 22.6852V58.2726H113.175V1.80335H89.3381ZM49.6522 34.7197C47.6403 30.5582 44.8086 28.7383 43.2151 28.1622C46.5598 26.6747 48.3109 24.657 49.6522 20.636V34.7197Z" fill="#101010"/>
</svg>
