<svg width="201" height="49" viewBox="0 0 201 49" fill="none" xmlns="http://www.w3.org/2000/svg">
<path d="M0.873047 0.322464H200.871V4.10241H0.873047V0.322464Z" fill="#101010"/>
<path d="M0.873047 44.7548H200.864V48.5329H0.873047V44.7548Z" fill="#101010"/>
<path d="M170.53 5.99698H200.873V16.4006H192.649V42.7813H178.724V16.4006H170.53V5.99698Z" fill="#101010"/>
<path d="M149.664 5.99698V42.7813H174.948V31.8178H163.567V5.99698H149.664Z" fill="#101010"/>
<path d="M121.191 5.99147H136.465L148.175 42.7813H134.57L133.176 37.182H124.646L123.379 42.7813H109.176L121.191 5.99147ZM126.543 28.998H131.281L128.966 18.2859L126.543 28.998Z" fill="#101010"/>
<path d="M113.858 5.99147H100.269L96.4768 23.9531L92.3644 5.99147H80.3513L76.4764 23.9531L72.7673 5.99147H59.1943L69.34 42.7813H81.9406L86.1783 24.8306L90.5264 42.7813H103.431L113.858 5.98963" fill="#101010"/>
<path d="M39.1865 13.869H59.43V21.4399H49.6324V24.581H58.1629V32.1537H49.6324V35.293H59.43V42.7813H39.1865V13.869Z" fill="#101010"/>
<path d="M0.882812 42.7813V5.99147H18.1704C28.3806 5.99147 36.4986 11.5338 36.4986 24.4616C36.4986 37.0425 28.6384 42.7813 18.1041 42.7813H0.882812ZM15.1538 31.7645C19.5332 31.7645 22.4265 29.9306 22.4265 24.3405C22.4265 18.2033 19.559 16.5658 15.1814 16.5658H14.0635V31.7645H15.1538Z" fill="#101010"/>
<path d="M194.53 39.7173C194.53 37.988 195.937 36.7121 197.6 36.7121C199.249 36.7121 200.656 37.988 200.656 39.7173C200.656 41.4632 199.249 42.7391 197.6 42.7391C195.937 42.7391 194.53 41.4632 194.53 39.7173ZM197.6 42.2379C198.969 42.2379 200.048 41.1694 200.048 39.7173C200.048 38.2909 198.969 37.2151 197.6 37.2151C196.219 37.2151 195.138 38.2909 195.138 39.7173C195.138 41.1694 196.219 42.2379 197.6 42.2379ZM197.011 40.1102H197.506L198.166 41.219H198.919L198.144 40.0643C198.667 40 199.024 39.6787 199.024 39.0454C199.024 38.5148 198.606 38.122 197.766 38.122H196.433V41.219H197.011V40.1102ZM197.011 39.5906V38.5956H197.685C198.061 38.5956 198.484 38.6195 198.484 39.0766C198.484 39.598 198.142 39.5906 197.683 39.5906H197.011Z" fill="#101010"/>
</svg>
