<svg width="49" height="49" viewBox="0 0 49 49" fill="none" xmlns="http://www.w3.org/2000/svg">
<path fill-rule="evenodd" clip-rule="evenodd" d="M40.4792 4.77674C39.2138 3.50103 37.5104 2.78473 35.7349 2.78174C35.3466 2.78174 34.9741 2.93977 34.6995 3.22108C34.4249 3.50238 34.2707 3.88391 34.2707 4.28174L34.0217 11.0467C34.0144 11.1941 33.953 11.3331 33.8498 11.436C33.7466 11.539 33.6093 11.5981 33.4653 11.6017H31.5178L31.1224 5.60174C31.0965 5.22239 30.9308 4.86731 30.6589 4.60833C30.3871 4.34935 30.0294 4.20581 29.6582 4.20674C27.846 4.23027 26.1041 4.92802 24.7571 6.16992C23.41 7.41183 22.5498 9.11315 22.3367 10.9567L21.3703 19.5067L23.8083 22.2638C24.065 21.4471 24.2445 20.6043 24.3428 19.7467L24.8992 14.8567L30.1707 14.6167H33.5092C34.4035 14.6058 35.2595 14.2432 35.9 13.6038C36.5405 12.9644 36.9165 12.0972 36.9503 11.1817L37.1407 6.11174C37.6123 6.30698 38.0407 6.59779 38.3999 6.96674C38.7448 7.32347 39.0159 7.74776 39.197 8.21424C39.3782 8.68073 39.4656 9.17984 39.4542 9.68174L39.3371 15.6517C39.3273 16.2719 39.1845 16.8822 38.9188 17.4396C38.6531 17.9969 38.271 18.4875 37.7996 18.8767L30.4782 24.8767C29.4003 25.7602 28.4662 26.8133 27.7107 27.9967L30.0828 29.6167C30.6602 28.7006 31.3828 27.8894 32.2207 27.2167L39.5421 21.2167C40.3564 20.5551 41.0176 19.717 41.4784 18.7626C41.9391 17.8083 42.188 16.7613 42.2071 15.6967L42.3242 9.69674C42.3537 8.79191 42.2056 7.89023 41.8887 7.04511C41.5718 6.19999 41.0925 5.42863 40.4792 4.77674ZM28.5892 11.6168L28.311 7.31177C27.4956 7.58705 26.7735 8.09428 26.229 8.77423C25.6845 9.45419 25.3401 10.2788 25.236 11.1518L25.1628 11.7968L28.5892 11.6168Z" fill="#FF5A0A"/>
<path d="M11.6629 34.4609L18.9843 22.9559L20.4486 26.2709L14.0936 35.9909C13.7782 36.4871 13.6133 37.0678 13.6195 37.6599C13.6256 38.2519 13.8027 38.8288 14.1284 39.318C14.454 39.8072 14.9137 40.1867 15.4495 40.4087C15.9853 40.6308 16.5732 40.6855 17.1393 40.5659C17.5163 40.4906 17.8743 40.3374 18.1915 40.1156C18.5087 39.8938 18.7785 39.6081 18.9843 39.2759L22.8866 33.1634L25.2295 34.8134L21.2979 40.9559C20.4455 42.2848 19.1131 43.2128 17.5932 43.5359C17.194 43.6252 16.7865 43.6705 16.3779 43.6709C15.3112 43.6579 14.2682 43.3467 13.3615 42.7709C12.7169 42.3398 12.1617 41.7828 11.7274 41.1318C11.2932 40.4807 10.9885 39.7484 10.8307 38.9766C10.673 38.2048 10.6652 37.4087 10.808 36.6339C10.9508 35.8591 11.2413 35.1207 11.6629 34.4609Z" fill="#FF5A0A"/>
<path d="M31.9422 16.1167H29.0137C28.6253 16.1167 28.2529 16.2748 27.9783 16.5561C27.7036 16.8374 27.5494 17.2189 27.5494 17.6167C27.5494 18.0146 27.7036 18.3961 27.9783 18.6774C28.2529 18.9587 28.6253 19.1167 29.0137 19.1167H31.9422C32.3306 19.1167 32.703 18.9587 32.9776 18.6774C33.2522 18.3961 33.4065 18.0146 33.4065 17.6167C33.4065 17.2189 33.2522 16.8374 32.9776 16.5561C32.703 16.2748 32.3306 16.1167 31.9422 16.1167Z" fill="#FF5A0A"/>
<path d="M7.27998 7.54692L11.36 4.65192C11.6424 4.45352 11.9847 4.35862 12.329 4.38321C12.6733 4.4078 12.9986 4.55039 13.25 4.78692L17.75 8.95692C17.9682 9.16269 18.1197 9.42916 18.185 9.72192L18.83 12.6019L29.915 28.3069L30.935 27.5869C31.2342 27.4484 31.5706 27.4123 31.8924 27.4843C32.2141 27.5562 32.5032 27.7321 32.7149 27.9848C32.9267 28.2375 33.0492 28.5529 33.0637 28.8823C33.0782 29.2117 32.9837 29.5366 32.795 29.8069L38.345 37.6369C39.1747 38.8177 39.5031 40.2789 39.2586 41.7012C39.0141 43.1235 38.2164 44.3911 37.04 45.2269C35.8616 46.0558 34.4027 46.3839 32.9829 46.1393C31.5631 45.8947 30.2981 45.0973 29.465 43.9219L23.915 36.0919C23.7056 36.2153 23.4679 36.2825 23.225 36.2869C22.9845 36.2882 22.7472 36.2317 22.5331 36.122C22.319 36.0124 22.1345 35.8528 21.995 35.6569C21.8799 35.4957 21.7978 35.3133 21.7536 35.1202C21.7094 34.9271 21.7039 34.7271 21.7373 34.5319C21.7708 34.3366 21.8426 34.15 21.9486 33.9826C22.0546 33.8153 22.1928 33.6706 22.355 33.5569L23.375 32.8369L12.35 17.2219L9.84498 15.7219C9.59152 15.5592 9.39291 15.324 9.27498 15.0469L6.82998 9.42192C6.67263 9.10634 6.63149 8.74542 6.71378 8.40253C6.79608 8.05964 6.99655 7.7567 7.27998 7.54692ZM31.85 42.2569C32.2239 42.784 32.792 43.141 33.4291 43.2493C34.0663 43.3576 34.7204 43.2084 35.2475 42.8344C35.7746 42.4605 36.1316 41.8924 36.2399 41.2553C36.3482 40.6181 36.1989 39.964 35.825 39.4369L30.35 31.6369L28.355 33.0319L26.375 34.4419L31.85 42.2569ZM11.78 13.3069L14.135 14.8069C14.3041 14.9134 14.4517 15.0508 14.57 15.2119L25.85 31.1719L26.285 30.8719L27.485 30.0169L16.235 14.0869C16.1161 13.9269 16.0341 13.7424 15.995 13.5469L15.35 10.8319L12.095 7.83192L10.01 9.33192L11.78 13.3069Z" fill="#FF5A0A"/>
</svg>
