<svg width="49" height="49" viewBox="0 0 49 49" fill="none" xmlns="http://www.w3.org/2000/svg">
<path d="M44 18.345V17.445C44 16.0035 43.4284 14.6208 42.4105 13.6001C41.3926 12.5794 40.0115 12.004 38.57 12H37.475C37.1816 11.5417 36.778 11.1643 36.3011 10.9022C35.8242 10.6402 35.2892 10.5019 34.745 10.5H33.755C33.1944 10.5023 32.644 10.65 32.1576 10.9287C31.6712 11.2074 31.2655 11.6076 30.98 12.09C30.8248 12.0383 30.6633 12.0081 30.5 12H17.975C17.6816 11.5417 17.278 11.1643 16.8011 10.9022C16.3242 10.6402 15.7892 10.5019 15.245 10.5H14.255C13.7108 10.5019 13.1758 10.6402 12.6989 10.9022C12.222 11.1643 11.8184 11.5417 11.525 12H10.445C10.0055 11.9963 9.5672 12.0466 9.14 12.15C8.17391 12.3871 7.29124 12.8844 6.58782 13.5878C5.88441 14.2912 5.38714 15.1739 5.15 16.14C5.054 16.5685 5.00372 17.0059 5 17.445V18.345C4.5485 18.586 4.17066 18.9447 3.90657 19.3831C3.64248 19.8215 3.50199 20.3232 3.5 20.835V24.165C3.50199 24.6768 3.64248 25.1785 3.90657 25.6169C4.17066 26.0553 4.5485 26.414 5 26.655V38.07C5.00397 39.5115 5.57939 40.8926 6.6001 41.9105C7.6208 42.9284 9.00349 43.5 10.445 43.5H11.525C11.8184 43.9583 12.222 44.3357 12.6989 44.5978C13.1758 44.8598 13.7108 44.9981 14.255 45H15.245C15.7892 44.9981 16.3242 44.8598 16.8011 44.5978C17.278 44.3357 17.6816 43.9583 17.975 43.5H30.5C30.6633 43.4919 30.8248 43.4617 30.98 43.41C31.2655 43.8924 31.6712 44.2926 32.1576 44.5713C32.644 44.85 33.1944 44.9977 33.755 45H34.745C35.2892 44.9981 35.8242 44.8598 36.3011 44.5978C36.778 44.3357 37.1816 43.9583 37.475 43.5H38.57C40.0089 43.496 41.3878 42.9227 42.4052 41.9052C43.4227 40.8878 43.996 39.5089 44 38.07V26.655C44.4515 26.414 44.8293 26.0553 45.0934 25.6169C45.3575 25.1785 45.498 24.6768 45.5 24.165V20.835C45.498 20.3232 45.3575 19.8215 45.0934 19.3831C44.8293 18.9447 44.4515 18.586 44 18.345ZM6.5 24V21H42.5V24H6.5ZM41 17.445V18H38V15H38.57C39.2159 15.004 39.8339 15.2633 40.2892 15.7214C40.7445 16.1795 41 16.7991 41 17.445ZM33.755 13.5H34.745C34.8115 13.5036 34.8742 13.5316 34.9213 13.5787C34.9684 13.6257 34.9964 13.6885 35 13.755V18H33.5V13.755C33.5036 13.6885 33.5316 13.6257 33.5787 13.5787C33.6258 13.5316 33.6885 13.5036 33.755 13.5ZM30.5 18H18.5V15H30.5V18ZM14.255 13.5H15.245C15.3115 13.5036 15.3743 13.5316 15.4213 13.5787C15.4684 13.6257 15.4964 13.6885 15.5 13.755V18H14V13.755C14.0036 13.6885 14.0316 13.6257 14.0787 13.5787C14.1257 13.5316 14.1885 13.5036 14.255 13.5ZM8.075 16.86C8.18201 16.4282 8.40478 16.0339 8.71932 15.7193C9.03386 15.4048 9.42824 15.182 9.86 15.075C10.0512 15.026 10.2477 15.0009 10.445 15H11V18H8V17.445C8.00085 17.2477 8.02604 17.0512 8.075 16.86ZM8 38.07V27H11V40.5H10.445C9.79914 40.5 9.1795 40.2445 8.72141 39.7892C8.26331 39.3339 8.00396 38.7159 8 38.07ZM15.245 42H14.255C14.1885 41.9964 14.1257 41.9684 14.0787 41.9213C14.0316 41.8742 14.0036 41.8115 14 41.745V27H15.5V41.745C15.4964 41.8115 15.4684 41.8742 15.4213 41.9213C15.3743 41.9684 15.3115 41.9964 15.245 42ZM18.5 40.5V27H30.5V40.5H18.5ZM34.745 42H33.755C33.6885 41.9964 33.6258 41.9684 33.5787 41.9213C33.5316 41.8742 33.5036 41.8115 33.5 41.745V27H35V41.745C34.9964 41.8115 34.9684 41.8742 34.9213 41.9213C34.8742 41.9684 34.8115 41.9964 34.745 42ZM38.57 40.5H38V27H41V38.07C40.9961 38.7133 40.7388 39.3291 40.2839 39.7839C39.8291 40.2388 39.2133 40.4961 38.57 40.5Z" fill="#FF5A0A"/>
<path d="M26 28.5H23C22.6022 28.5 22.2206 28.658 21.9393 28.9393C21.658 29.2206 21.5 29.6022 21.5 30C21.5 30.3978 21.658 30.7794 21.9393 31.0607C22.2206 31.342 22.6022 31.5 23 31.5H26C26.3978 31.5 26.7794 31.342 27.0607 31.0607C27.342 30.7794 27.5 30.3978 27.5 30C27.5 29.6022 27.342 29.2206 27.0607 28.9393C26.7794 28.658 26.3978 28.5 26 28.5Z" fill="#FF5A0A"/>
<path d="M24.5 9V4" stroke="#FF5A0A" stroke-width="3" stroke-linecap="round"/>
<path d="M39.5 9.33013L42 5" stroke="#FF5A0A" stroke-width="3" stroke-linecap="round"/>
<path d="M9 9.33013L6.5 5" stroke="#FF5A0A" stroke-width="3" stroke-linecap="round"/>
</svg>
