<svg width="49" height="49" viewBox="0 0 49 49" fill="none" xmlns="http://www.w3.org/2000/svg">
<path d="M32.9688 9C30.9356 9.003 28.9533 9.63548 27.2941 10.8106C25.6349 11.9856 24.3802 13.6456 23.7025 15.5625H21.1956C21.0111 15.5625 20.8342 15.4892 20.7037 15.3588C20.5733 15.2283 20.5 15.0514 20.5 14.8669V12.6875C20.8481 12.6875 21.1819 12.5492 21.4281 12.3031C21.6742 12.0569 21.8125 11.7231 21.8125 11.375V7.4375C21.8125 7.0894 21.6742 6.75556 21.4281 6.50942C21.1819 6.26328 20.8481 6.125 20.5 6.125H7.375C7.0269 6.125 6.69306 6.26328 6.44692 6.50942C6.20078 6.75556 6.0625 7.0894 6.0625 7.4375V11.375C6.0625 11.7231 6.20078 12.0569 6.44692 12.3031C6.69306 12.5492 7.0269 12.6875 7.375 12.6875V36.3125C7.0269 36.3125 6.69306 36.4508 6.44692 36.6969C6.20078 36.9431 6.0625 37.2769 6.0625 37.625V41.5625C6.0625 41.9106 6.20078 42.2444 6.44692 42.4906C6.69306 42.7367 7.0269 42.875 7.375 42.875H20.5C20.8481 42.875 21.1819 42.7367 21.4281 42.4906C21.6742 42.2444 21.8125 41.9106 21.8125 41.5625V37.625C21.8125 37.2769 21.6742 36.9431 21.4281 36.6969C21.1819 36.4508 20.8481 36.3125 20.5 36.3125V24.1331C20.5 23.9486 20.5733 23.7717 20.7037 23.6412C20.8342 23.5108 21.0111 23.4375 21.1956 23.4375H24.2669C25.0807 24.98 26.2898 26.2785 27.7703 27.2003C29.2508 28.122 30.9497 28.6339 32.693 28.6835C34.4363 28.7331 36.1615 28.3187 37.692 27.4826C39.2226 26.6466 40.5035 25.4189 41.4038 23.9252C42.3041 22.4315 42.7914 20.7255 42.8158 18.9816C42.8402 17.2378 42.4009 15.5188 41.5428 14.0005C40.6848 12.4822 39.4387 11.2191 37.9322 10.3405C36.4257 9.46184 34.7128 8.99924 32.9688 9ZM8.6875 8.75H19.1875V10.0625H8.6875V8.75ZM19.1875 40.25H8.6875V38.9375H19.1875V40.25ZM21.1956 20.8125C20.3149 20.8125 19.4703 21.1624 18.8476 21.7851C18.2249 22.4078 17.875 23.2524 17.875 24.1331V36.3125H10V12.6875H17.875V14.8669C17.875 15.7476 18.2249 16.5922 18.8476 17.2149C19.4703 17.8376 20.3149 18.1875 21.1956 18.1875H23.125C23.1119 18.4061 23.1119 18.6252 23.125 18.8438C23.1235 19.505 23.1895 20.1646 23.3219 20.8125H21.1956ZM33.0081 26.0625C31.5787 26.0703 30.1792 25.6536 28.9869 24.8651C27.7946 24.0767 26.8633 22.952 26.3109 21.6336C25.7585 20.3153 25.6099 18.8626 25.8839 17.4597C26.158 16.0568 26.8424 14.7669 27.8504 13.7534C28.8584 12.7399 30.1445 12.0485 31.5459 11.7667C32.9473 11.485 34.4007 11.6256 35.7221 12.1708C37.0434 12.716 38.1732 13.6412 38.9681 14.8292C39.7631 16.0171 40.1875 17.4143 40.1875 18.8438C40.184 20.7572 39.4224 22.5913 38.0693 23.9443C36.7163 25.2974 34.8822 26.059 32.9688 26.0625H33.0081Z" fill="#FF5A0A"/>
<path d="M31.7721 13.9892C31.567 13.7345 31.2742 13.5656 30.951 13.5155C30.6278 13.4654 30.2976 13.5378 30.025 13.7184C29.7524 13.8991 29.557 14.175 29.4772 14.4921C29.3974 14.8092 29.4388 15.1447 29.5934 15.4329L32.2184 19.3704C32.3373 19.551 32.4989 19.6993 32.689 19.8024C32.879 19.9054 33.0916 19.9599 33.3078 19.961C33.5658 19.964 33.8183 19.886 34.0296 19.7379C34.3174 19.5455 34.5174 19.2472 34.5862 18.9079C34.6551 18.5687 34.5871 18.216 34.3971 17.9267L31.7721 13.9892Z" fill="#FF5A0A"/>
<path d="M23.9375 42L28.4375 37.5L31.9375 41L42.9375 31M42.9375 31L41.9375 36.5M42.9375 31H37.9375" stroke="#FF5A0A" stroke-width="2.5" stroke-linecap="round" stroke-linejoin="round"/>
</svg>
