<svg width="49" height="49" viewBox="0 0 49 49" fill="none" xmlns="http://www.w3.org/2000/svg">
<path d="M4.75 20.0097C4.74637 16.9394 5.59952 13.9289 7.21349 11.3169C8.82745 8.70496 11.1382 6.59514 13.8858 5.22478C16.6334 3.85443 19.7089 3.27791 22.7663 3.56006C25.8237 3.84221 28.7417 4.97185 31.1921 6.82191C33.6425 8.67197 35.5281 11.1691 36.6368 14.0323C37.7454 16.8955 38.0332 20.0113 37.4677 23.0291C36.9022 26.047 35.5059 28.8472 33.4358 31.1148C31.3657 33.3824 28.704 35.0274 25.75 35.8647V38.0097H27.145C27.9685 38.0097 28.7583 38.3369 29.3406 38.9192C29.9229 39.5015 30.25 40.2912 30.25 41.1147V42.4047C30.25 43.2282 29.9229 44.018 29.3406 44.6003C28.7583 45.1826 27.9685 45.5097 27.145 45.5097H15.355C14.5315 45.5097 13.7417 45.1826 13.1594 44.6003C12.5771 44.018 12.25 43.2282 12.25 42.4047V41.1147C12.25 40.2912 12.5771 39.5015 13.1594 38.9192C13.7417 38.3369 14.5315 38.0097 15.355 38.0097H16.75V35.8647C13.2979 34.8862 10.2589 32.809 8.09343 29.9479C5.92802 27.0868 4.75425 23.5979 4.75 20.0097ZM34.75 20.0097C34.75 17.3397 33.9582 14.7296 32.4748 12.5095C30.9914 10.2895 28.883 8.55916 26.4162 7.53737C23.9494 6.51559 21.235 6.24825 18.6163 6.76915C15.9975 7.29005 13.5921 8.5758 11.7041 10.4638C9.81605 12.3518 8.5303 14.7573 8.0094 17.376C7.4885 19.9948 7.75585 22.7092 8.77763 25.176C9.79941 27.6428 11.5297 29.7512 13.7498 31.2346C15.9699 32.718 18.58 33.5097 21.25 33.5097C24.8304 33.5097 28.2642 32.0874 30.7959 29.5557C33.3277 27.0239 34.75 23.5902 34.75 20.0097ZM15.25 41.1147V42.4047C15.25 42.4185 15.2527 42.4322 15.258 42.4449C15.2633 42.4577 15.271 42.4692 15.2808 42.479C15.2905 42.4887 15.3021 42.4965 15.3148 42.5018C15.3276 42.507 15.3412 42.5097 15.355 42.5097H27.145C27.1588 42.5097 27.1724 42.507 27.1852 42.5018C27.1979 42.4965 27.2095 42.4887 27.2193 42.479C27.229 42.4692 27.2367 42.4577 27.242 42.4449C27.2473 42.4322 27.25 42.4185 27.25 42.4047V41.1147C27.25 41.0869 27.2389 41.0602 27.2193 41.0405C27.1996 41.0208 27.1729 41.0097 27.145 41.0097H15.355C15.3272 41.0097 15.3004 41.0208 15.2808 41.0405C15.2611 41.0602 15.25 41.0869 15.25 41.1147ZM19.75 38.0097H22.75V36.5097C22.255 36.5097 21.76 36.5847 21.25 36.5847C20.74 36.5847 20.245 36.5847 19.75 36.5097V38.0097Z" fill="#FF5A0A"/>
<path d="M20.4248 24.2548C20.096 24.0348 19.8674 23.6939 19.7887 23.3062C19.7101 22.9185 19.7877 22.5155 20.0048 22.1848L23.0048 17.6848C23.1035 17.5008 23.2394 17.3395 23.404 17.2111C23.5685 17.0828 23.7581 16.9901 23.9605 16.9392C24.1629 16.8882 24.3737 16.8801 24.5794 16.9152C24.7851 16.9504 24.9813 17.0281 25.1552 17.1434C25.3292 17.2587 25.4772 17.409 25.5898 17.5848C25.7024 17.7605 25.777 17.9578 25.809 18.1641C25.8409 18.3703 25.8295 18.581 25.7754 18.7826C25.7213 18.9841 25.6257 19.1722 25.4948 19.3348L22.4948 23.8348C22.3589 24.0411 22.1742 24.2107 21.957 24.3284C21.7398 24.4462 21.4969 24.5085 21.2498 24.5098C20.9549 24.5131 20.6664 24.4239 20.4248 24.2548Z" fill="#FF5A0A"/>
<path d="M28.75 20.0098C28.7499 18.7944 28.4545 17.5973 27.8891 16.5214C27.3237 15.4455 26.5053 14.5231 25.5044 13.8337C24.5035 13.1442 23.35 12.7084 22.1432 12.5636C20.9365 12.4189 19.7126 12.5696 18.577 13.0027C17.4414 13.4359 16.4281 14.1385 15.6243 15.0502C14.8205 15.9619 14.2504 17.0552 13.9628 18.2361C13.6753 19.417 13.6791 20.6501 13.9739 21.8292C14.2687 23.0083 14.8456 24.0981 15.655 25.0048C15.788 25.1521 15.8905 25.3242 15.9566 25.5113C16.0226 25.6984 16.0509 25.8968 16.0397 26.0949C16.0285 26.293 15.9782 26.4869 15.8915 26.6654C15.8049 26.8439 15.6837 27.0035 15.535 27.1348C15.2615 27.376 14.9096 27.5093 14.545 27.5098C14.3332 27.5114 14.1234 27.4682 13.9295 27.3828C13.7356 27.2975 13.5619 27.1721 13.42 27.0148C12.0698 25.5037 11.1858 23.6341 10.8746 21.6317C10.5633 19.6292 10.8382 17.5795 11.666 15.7299C12.4938 13.8802 13.8392 12.3096 15.5398 11.2075C17.2404 10.1054 19.2235 9.51904 21.25 9.51904C23.2765 9.51904 25.2596 10.1054 26.9602 11.2075C28.6608 12.3096 30.0062 13.8802 30.834 15.7299C31.6618 17.5795 31.9367 19.6292 31.6254 21.6317C31.3142 23.6341 30.4302 25.5037 29.08 27.0148C28.948 27.1616 28.7884 27.2809 28.6103 27.366C28.4322 27.4511 28.2391 27.5002 28.042 27.5107C27.845 27.5211 27.6477 27.4926 27.4616 27.4269C27.2756 27.3611 27.1042 27.2593 26.9575 27.1273C26.8107 26.9954 26.6914 26.8358 26.6063 26.6577C26.5213 26.4796 26.4721 26.2865 26.4617 26.0894C26.4512 25.8923 26.4797 25.6951 26.5455 25.509C26.6112 25.3229 26.713 25.1516 26.845 25.0048C28.072 23.6303 28.7501 21.8523 28.75 20.0098Z" fill="#FF5A0A"/>
<path d="M33.25 36.5098L36.75 44.0098L44.25 32.5098" stroke="#FF5A0A" stroke-width="3" stroke-linecap="round" stroke-linejoin="round"/>
</svg>
