<svg width="49" height="50" viewBox="0 0 49 50" fill="none" xmlns="http://www.w3.org/2000/svg">
<path d="M33.6875 33.9906V33.5312C33.6875 33.1832 33.5492 32.8493 33.3031 32.6032C33.0569 32.357 32.7231 32.2188 32.375 32.2188C32.0269 32.2188 31.6931 32.357 31.4469 32.6032C31.2008 32.8493 31.0625 33.1832 31.0625 33.5312H29.0019C30.4594 32.5621 31.6516 31.244 32.4699 29.6967C33.2883 28.1494 33.7068 26.4221 33.6875 24.6719V22.1125C34.1013 21.9752 34.4878 21.7664 34.8294 21.4956C35.2931 21.1383 35.6681 20.6789 35.9254 20.1531C36.1826 19.6272 36.3151 19.0491 36.3125 18.4638C36.3066 17.8368 36.1511 17.2203 35.8589 16.6655C35.5667 16.1108 35.1462 15.6338 34.6325 15.2744C34.658 15.1267 34.658 14.9758 34.6325 14.8281C33.4512 10.3131 29.9994 7.28125 26.0356 7.28125H22.9644C19.0269 7.28125 15.5488 10.3131 14.3938 14.8281C14.3683 14.9758 14.3683 15.1267 14.3938 15.2744C13.8752 15.6309 13.4496 16.1066 13.1527 16.6615C12.8559 17.2165 12.6963 17.8345 12.6875 18.4638C12.6849 19.0491 12.8174 19.6272 13.0746 20.1531C13.3319 20.6789 13.7069 21.1383 14.1706 21.4956C14.5133 21.7585 14.8999 21.9585 15.3125 22.0862V24.7113C15.2998 26.4549 15.7215 28.1742 16.5395 29.714C17.3575 31.2539 18.5462 32.5658 19.9981 33.5312H17.9375C17.9375 33.1832 17.7992 32.8493 17.5531 32.6032C17.3069 32.357 16.9731 32.2188 16.625 32.2188C16.2769 32.2188 15.9431 32.357 15.6969 32.6032C15.4508 32.8493 15.3125 33.1832 15.3125 33.5312V33.9906C13.7786 34.5329 12.4503 35.5371 11.5102 36.8649C10.5701 38.1928 10.0644 39.7793 10.0625 41.4062C10.0625 41.7543 10.2008 42.0882 10.4469 42.3343C10.6931 42.5805 11.0269 42.7188 11.375 42.7188H37.625C37.9731 42.7188 38.3069 42.5805 38.5531 42.3343C38.7992 42.0882 38.9375 41.7543 38.9375 41.4062C38.9356 39.7793 38.4299 38.1928 37.4898 36.8649C36.5497 35.5371 35.2214 34.5329 33.6875 33.9906ZM33.215 19.435C33.0666 19.5509 32.8936 19.6312 32.7093 19.6699C32.525 19.7085 32.3344 19.7045 32.1519 19.6581L27.5975 18.5163C25.5642 18.0045 23.4358 18.0045 21.4025 18.5163L16.8481 19.6581C16.5296 19.7382 16.1923 19.6884 15.9105 19.5198C15.771 19.4364 15.6492 19.3262 15.5523 19.1957C15.4553 19.0651 15.385 18.9168 15.3453 18.7591C15.3057 18.6014 15.2975 18.4374 15.3212 18.2765C15.3449 18.1156 15.4001 17.961 15.4836 17.8215C15.6522 17.5396 15.9259 17.3363 16.2444 17.2563L22.6625 15.655C23.8689 15.3533 25.1311 15.3533 26.3375 15.655L32.7556 17.2563C33.0238 17.3239 33.2615 17.4798 33.4305 17.6987C33.5995 17.9177 33.69 18.1871 33.6875 18.4638C33.6885 18.651 33.6465 18.8361 33.5645 19.0045C33.4826 19.1729 33.363 19.3202 33.215 19.435ZM24.5 10.7725C25.0696 11.3716 25.492 12.0951 25.7338 12.8856C24.9146 12.7806 24.0854 12.7806 23.2663 12.8856C23.508 12.0951 23.9304 11.3716 24.5 10.7725ZM31.6794 14.29L28.5162 13.5025C28.5162 13.24 28.5162 12.9775 28.4112 12.6887C28.2112 11.7503 27.8324 10.8591 27.2956 10.0637C28.306 10.3761 29.229 10.9213 29.9904 11.6553C30.7517 12.3893 31.3302 13.2917 31.6794 14.29ZM21.7044 10.09C21.1676 10.8854 20.7888 11.7766 20.5888 12.715C20.5888 13.0037 20.51 13.2663 20.4837 13.5288L17.3206 14.3162C17.6698 13.318 18.2483 12.4155 19.0096 11.6815C19.771 10.9475 20.694 10.4024 21.7044 10.09ZM17.9375 22.0862L22.0325 21.0625C23.6524 20.6558 25.3476 20.6558 26.9675 21.0625L31.0625 22.0862V24.7113C31.1121 26.205 30.7185 27.6801 29.9314 28.9506C29.1444 30.2212 27.9989 31.2304 26.6394 31.8512C26.3585 31.9589 26.1231 32.1597 25.9725 32.4201C25.822 32.6805 25.7655 32.9848 25.8125 33.2819C25.805 33.3648 25.805 33.4483 25.8125 33.5312V34.8438C25.8125 35.1918 25.6742 35.5257 25.4281 35.7718C25.1819 36.018 24.8481 36.1562 24.5 36.1562C24.1519 36.1562 23.8181 36.018 23.5719 35.7718C23.3258 35.5257 23.1875 35.1918 23.1875 34.8438V33.5312C23.195 33.4483 23.195 33.3648 23.1875 33.2819C23.2478 32.9851 23.2037 32.6767 23.0625 32.4087C22.9214 32.1408 22.692 31.93 22.4131 31.8119C21.0438 31.1989 19.8873 30.1931 19.0905 28.9219C18.2937 27.6507 17.8924 26.1715 17.9375 24.6719V22.0862ZM12.8581 40.0938C13.0327 39.4197 13.3396 38.7871 13.7609 38.2328C14.1823 37.6785 14.7097 37.2135 15.3125 36.865V40.0938H12.8581ZM17.9375 36.1562H20.7988C21.0746 36.9164 21.5779 37.5731 22.2401 38.0373C22.9023 38.5014 23.6913 38.7504 24.5 38.7504C25.3087 38.7504 26.0977 38.5014 26.7599 38.0373C27.4221 37.5731 27.9254 36.9164 28.2012 36.1562H31.0625V40.0938H17.9375V36.1562ZM33.6875 40.0938V36.865C34.2903 37.2135 34.8177 37.6785 35.2391 38.2328C35.6604 38.7871 35.9673 39.4197 36.1419 40.0938H33.6875Z" fill="#FF5A0A"/>
</svg>
