<svg width="33" height="33" viewBox="0 0 33 33" fill="none" xmlns="http://www.w3.org/2000/svg">
<path d="M30.2559 30.1384C27.9016 32.4241 23.3416 32.4469 16.7359 32.4469C10.1302 32.4469 5.22731 32.4241 2.87302 30.1384C0.58731 27.7841 0.564453 23.0069 0.564453 16.6184C0.564453 10.2298 0.58731 5.1098 2.87302 2.75552C5.22731 0.469802 10.1416 0.446945 16.7359 0.446945C23.3416 0.446945 27.9016 0.469802 30.2559 2.75552C32.5416 5.1098 32.5645 9.88695 32.5645 16.2755C32.5645 22.6641 32.5416 27.7841 30.2559 30.1384Z" fill="white"/>
<path d="M3.06445 7.86497H6.6262C7.47265 7.86497 8.22744 8.39783 8.5108 9.19544L9.33 11.5013M9.33 11.5013L13.1046 22.1262C13.4535 23.1083 14.4982 23.6578 15.5052 23.3889L28.5804 19.8976C29.4556 19.6639 30.0645 18.8712 30.0645 17.9653V13.5013C30.0645 12.3968 29.169 11.5013 28.0645 11.5013H9.33Z" stroke="#0B1219" stroke-width="1.6"/>
<circle cx="9.79306" cy="26.1947" r="1.76767" fill="#0B1219"/>
<circle cx="23.7364" cy="26.1947" r="1.76767" fill="#0B1219"/>
</svg>
