<svg width="33" height="32" viewBox="0 0 33 32" fill="none" xmlns="http://www.w3.org/2000/svg">
<path d="M19.8728 19.0938C17.3585 21.6881 17.1757 24.9223 16.9585 32.0081C23.5643 32.0081 28.1243 31.9852 30.4785 29.6995C32.7643 27.3452 32.7871 22.5681 32.7871 16.1795C25.7014 16.4081 22.4671 16.5795 19.8728 19.0938ZM0.787109 16.1795C0.787109 22.5681 0.809967 27.3452 3.09568 29.6995C5.44997 31.9852 10.01 32.0081 16.6157 32.0081C16.3871 24.9223 16.2157 21.6881 13.7014 19.0938C11.1071 16.5795 7.87282 16.3966 0.787109 16.1795ZM16.6157 0.00805664C10.0214 0.00805664 5.44997 0.0309138 3.09568 2.31663C0.809967 4.67091 0.787109 9.44806 0.787109 15.8366C7.87282 15.6081 11.1071 15.4366 13.7014 12.9223C16.2157 10.3281 16.3985 7.09377 16.6157 0.00805664ZM19.8728 12.9223C17.3585 10.3281 17.1757 7.09377 16.9585 0.00805664C23.5643 0.00805664 28.1243 0.0309138 30.4785 2.31663C32.7643 4.67091 32.7871 9.44806 32.7871 15.8366C25.7014 15.6081 22.4671 15.4366 19.8728 12.9223Z" fill="white"/>
</svg>
