<svg width="33" height="33" viewBox="0 0 33 33" fill="none" xmlns="http://www.w3.org/2000/svg">
<path d="M19.822 19.9632C17.3078 22.5574 17.1249 25.7917 16.9078 32.8774C23.5135 32.8774 28.0735 32.8546 30.4278 30.5689C32.7135 28.2146 32.7363 23.4374 32.7363 17.0489C25.6506 17.2774 22.4163 17.4489 19.822 19.9632ZM0.736328 17.0489C0.736328 23.4374 0.759185 28.2146 3.0449 30.5689C5.39919 32.8546 9.95919 32.8774 16.5649 32.8774C16.3363 25.7917 16.1649 22.5574 13.6506 19.9632C11.0563 17.4489 7.82204 17.266 0.736328 17.0489ZM16.5649 0.877441C9.97061 0.877441 5.39919 0.900299 3.0449 3.18601C0.759185 5.5403 0.736328 10.3174 0.736328 16.706C7.82204 16.4774 11.0563 16.306 13.6506 13.7917C16.1649 11.1974 16.3478 7.96316 16.5649 0.877441ZM19.822 13.7917C17.3078 11.1974 17.1249 7.96316 16.9078 0.877441C23.5135 0.877441 28.0735 0.900299 30.4278 3.18601C32.7135 5.5403 32.7363 10.3174 32.7363 16.706C25.6506 16.4774 22.4163 16.306 19.822 13.7917Z" fill="#242424"/>
</svg>
