<svg width="18" height="13" viewBox="0 0 18 13" fill="none" xmlns="http://www.w3.org/2000/svg">
<path d="M15.5688 0.25C16.4321 0.25 17.1626 0.980469 17.1626 1.84375V11.4062C17.1626 12.3027 16.4321 13 15.5688 13H1.75635C0.859863 13 0.162598 12.3027 0.162598 11.4062V1.84375C0.162598 0.980469 0.859863 0.25 1.75635 0.25H15.5688ZM15.5688 1.84375H1.75635V3.20508C2.48682 3.83594 3.68213 4.76562 6.20557 6.75781C6.77002 7.18945 7.86572 8.25195 8.6626 8.21875C9.42627 8.25195 10.522 7.18945 11.0864 6.75781C13.6099 4.76562 14.8052 3.83594 15.5688 3.20508V1.84375ZM1.75635 11.4062H15.5688V5.26367C14.8052 5.86133 13.7095 6.72461 12.0825 8.01953C11.3188 8.58398 10.0571 9.8457 8.6626 9.8125C7.23486 9.8457 5.93994 8.58398 5.20947 8.01953C3.58252 6.72461 2.48682 5.86133 1.75635 5.26367V11.4062Z" fill="#FF963F"/>
</svg>
