<svg width="33" height="33" viewBox="0 0 33 33" fill="none" xmlns="http://www.w3.org/2000/svg">
<path fill-rule="evenodd" clip-rule="evenodd" d="M16.4331 32.4452C23.0389 32.4452 27.5989 32.4223 29.9531 30.1366C32.2389 27.7823 32.2617 22.6623 32.2617 16.2738C32.2617 9.88519 32.2389 5.10805 29.9531 2.75376C27.5989 0.468048 23.0389 0.44519 16.4331 0.44519C9.83886 0.44519 4.92458 0.468048 2.57029 2.75376C0.284576 5.10805 0.261719 10.228 0.261719 16.6166C0.261719 23.0052 0.284576 27.7823 2.57029 30.1366C4.92458 32.4223 9.82743 32.4452 16.4331 32.4452ZM25.6171 21.3866L25.6171 21.3866L25.617 21.3866C25.0771 21.1166 22.3792 19.7676 21.8395 19.7676C21.2999 19.4978 21.03 19.4978 20.7601 20.0375C20.6252 20.3073 20.288 20.712 19.9507 21.1168C19.6134 21.5215 19.2762 21.9263 19.1412 22.1961C18.8714 22.4659 18.6015 22.4659 18.0619 22.4659C17.9776 22.4238 17.8671 22.3751 17.7322 22.3157C17.0036 21.9947 15.5663 21.3616 13.7447 19.7676C12.1257 18.4185 11.0464 16.5297 10.7765 15.99C10.5067 15.4504 10.7765 15.1805 11.0464 14.9107L11.0464 14.9107L11.8558 14.1012C11.9907 13.9663 12.0582 13.8314 12.1257 13.6965C12.1931 13.5616 12.2606 13.4266 12.3955 13.2917C12.5754 13.1118 12.5154 12.932 12.4555 12.7521C12.4255 12.6621 12.3955 12.5722 12.3955 12.4822C12.3955 12.2124 11.3162 9.51413 10.7765 8.43481C10.5067 7.62532 9.96705 7.62532 9.69722 7.62532H8.61784C8.34801 7.62532 7.80836 7.62532 7.2687 8.16498C6.72904 8.70464 5.37994 10.0538 5.37994 12.7521C5.37994 14.9909 6.68028 17.044 7.27722 17.9865C7.39972 18.18 7.4926 18.3266 7.53854 18.4185C7.57194 18.4519 7.65494 18.5679 7.78498 18.7498C8.70562 20.0372 11.9841 24.6219 16.7127 26.5134C20.5226 28.0822 21.7266 27.9757 22.6436 27.8945C22.8307 27.878 23.0058 27.8625 23.1887 27.8625C24.268 27.8625 26.4266 26.5134 26.6964 25.434C27.2361 24.0849 27.2361 23.0056 26.9663 23.0056C26.7384 21.8665 26.3183 21.6891 25.8682 21.4991C25.7852 21.4641 25.7011 21.4286 25.6171 21.3866Z" fill="#242424"/>
</svg>
