<svg width="33" height="32" viewBox="0 0 33 32" fill="none" xmlns="http://www.w3.org/2000/svg">
<path fill-rule="evenodd" clip-rule="evenodd" d="M16.3008 32.0081C22.9065 32.0081 27.4665 31.9852 29.8208 29.6995C32.1065 27.3452 32.1294 22.2252 32.1294 15.8366C32.1294 9.44806 32.1065 4.67091 29.8208 2.31663C27.4665 0.0309138 22.9065 0.00805664 16.3008 0.00805664C9.70654 0.00805664 4.79225 0.0309138 2.43797 2.31663C0.152252 4.67091 0.129395 9.79091 0.129395 16.1795C0.129395 22.5681 0.152252 27.3452 2.43797 29.6995C4.79225 31.9852 9.69511 32.0081 16.3008 32.0081ZM25.4848 20.9495L25.4847 20.9494L25.4847 20.9494C24.9448 20.6795 22.2468 19.3305 21.7072 19.3305C21.1675 19.0607 20.8977 19.0607 20.6278 19.6003C20.4929 19.8702 20.1556 20.2749 19.8184 20.6796C19.4811 21.0844 19.1438 21.4891 19.0089 21.759C18.7391 22.0288 18.4692 22.0288 17.9295 22.0288C17.8453 21.9867 17.7347 21.938 17.5999 21.8786C16.8712 21.5576 15.434 20.9244 13.6123 19.3305C11.9934 17.9813 10.914 16.0925 10.6442 15.5529C10.3744 15.0132 10.6442 14.7434 10.914 14.4736L10.914 14.4736L11.7235 13.6641C11.8584 13.5292 11.9259 13.3943 11.9933 13.2593C12.0608 13.1244 12.1283 12.9895 12.2632 12.8546C12.4431 12.6747 12.3831 12.4948 12.3232 12.3149C12.2932 12.225 12.2632 12.1351 12.2632 12.0451C12.2632 11.7753 11.1839 9.07699 10.6442 7.99768C10.3744 7.18819 9.83473 7.18819 9.5649 7.18819H8.48552C8.21569 7.18819 7.67603 7.18819 7.13637 7.72785C6.59671 8.2675 5.24762 9.61665 5.24762 12.3149C5.24762 14.5538 6.54795 16.6069 7.1449 17.5494C7.2674 17.7428 7.36027 17.8895 7.40622 17.9813C7.43961 18.0147 7.52261 18.1308 7.65266 18.3127C8.5733 19.6001 11.8517 24.1848 16.5804 26.0762C20.3903 27.645 21.5943 27.5385 22.5113 27.4574C22.6984 27.4409 22.8735 27.4254 23.0563 27.4254C24.1357 27.4254 26.2943 26.0762 26.5641 24.9969C27.1038 23.6478 27.1038 22.5684 26.8339 22.5684C26.6061 21.4294 26.186 21.252 25.7359 21.062C25.6529 21.027 25.5688 20.9915 25.4848 20.9495Z" fill="white"/>
</svg>
