<svg width="19" height="17" viewBox="0 0 19 17" fill="none" xmlns="http://www.w3.org/2000/svg">
<path d="M1.72878 7.32414C6.68517 5.16472 9.9902 3.74109 11.6439 3.05327C16.3655 1.0894 17.3466 0.74825 17.9861 0.736865C18.1267 0.734507 18.4412 0.769363 18.6449 0.934654C18.8169 1.07422 18.8642 1.26276 18.8869 1.39509C18.9095 1.52741 18.9377 1.82885 18.9153 2.06439C18.6594 4.75279 17.5523 11.2768 16.9891 14.2879C16.7507 15.562 16.2815 15.9892 15.8271 16.031C14.8398 16.1218 14.0901 15.3785 13.1338 14.7516C11.6374 13.7707 10.792 13.1601 9.33955 12.2029C7.66093 11.0967 8.74911 10.4888 9.70575 9.49515C9.9561 9.23512 14.3063 5.27828 14.3905 4.91933C14.401 4.87444 14.4108 4.7071 14.3114 4.61874C14.212 4.53038 14.0653 4.5606 13.9594 4.58463C13.8093 4.61869 11.4188 6.19872 6.78789 9.32472C6.10936 9.79065 5.49476 10.0177 4.94411 10.0058C4.33705 9.99266 3.16932 9.66253 2.30124 9.38035C1.23649 9.03425 0.390258 8.85126 0.463946 8.26346C0.502327 7.9573 0.923938 7.64419 1.72878 7.32414Z" fill="#1A1A1A"/>
</svg>
