<svg width="33" height="32" viewBox="0 0 33 32" fill="none" xmlns="http://www.w3.org/2000/svg">
<path fill-rule="evenodd" clip-rule="evenodd" d="M16.958 32.0081C23.5638 32.0081 28.1238 31.9852 30.4781 29.6995C32.7638 27.3452 32.7866 22.2252 32.7866 15.8366C32.7866 9.44806 32.7638 4.67091 30.4781 2.31663C28.1238 0.0309138 23.5638 0.00805664 16.958 0.00805664C10.3638 0.00805664 5.44948 0.0309138 3.09519 2.31663C0.809478 4.67091 0.786621 9.79091 0.786621 16.1795C0.786621 22.5681 0.809478 27.3452 3.09519 29.6995C5.44948 31.9852 10.3523 32.0081 16.958 32.0081ZM26.5354 11.5197C26.4203 11.0728 26.1936 10.665 25.8779 10.337C25.5622 10.009 25.1686 9.77236 24.7364 9.65075C23.1455 9.20917 16.7866 9.20917 16.7866 9.20917C16.7866 9.20917 10.4277 9.20917 8.83684 9.65075C8.40469 9.77236 8.01105 10.009 7.69534 10.337C7.37962 10.665 7.1529 11.0728 7.03785 11.5197C6.61238 13.1691 6.61238 16.6086 6.61238 16.6086C6.61238 16.6086 6.61238 20.0482 7.03785 21.6975C7.1529 22.1444 7.37962 22.5522 7.69534 22.8802C8.01105 23.2082 8.40469 23.4449 8.83684 23.5665C10.4277 24.0081 16.7866 24.0081 16.7866 24.0081C16.7866 24.0081 23.1455 24.0081 24.7364 23.5665C25.1686 23.4449 25.5622 23.2082 25.8779 22.8802C26.1936 22.5522 26.4203 22.1444 26.5354 21.6975C26.9609 20.0482 26.9609 16.6086 26.9609 16.6086C26.9609 16.6086 26.9609 13.1691 26.5354 11.5197ZM15.0059 19.9407C14.8726 20.0185 14.7052 19.9223 14.7052 19.768V13.4493C14.7052 13.2949 14.8726 13.1987 15.0059 13.2765L20.422 16.4359C20.5543 16.513 20.5543 16.7042 20.422 16.7814L15.0059 19.9407Z" fill="white"/>
</svg>
