<svg width="33" height="33" viewBox="0 0 33 33" fill="none" xmlns="http://www.w3.org/2000/svg">
<path fill-rule="evenodd" clip-rule="evenodd" d="M16.9077 32.8774C23.5135 32.8774 28.0735 32.8546 30.4278 30.5689C32.7135 28.2146 32.7363 23.0946 32.7363 16.706C32.7363 10.3174 32.7135 5.5403 30.4278 3.18602C28.0735 0.900299 23.5135 0.877441 16.9077 0.877441C10.3135 0.877441 5.39917 0.900299 3.04489 3.18602C0.759186 5.5403 0.736328 10.6603 0.736328 17.0489C0.736328 23.4374 0.759186 28.2146 3.04489 30.5689C5.39917 32.8546 10.302 32.8774 16.9077 32.8774ZM17.6463 12.1841C15.9926 12.8719 12.6876 14.2956 7.73123 16.455C6.92639 16.7751 6.50476 17.0882 6.4664 17.3943C6.40152 17.9117 7.04947 18.1155 7.93179 18.3929C8.05182 18.4307 8.17618 18.4698 8.30368 18.5112C9.17175 18.7934 10.3395 19.1235 10.9465 19.1366C11.4972 19.1485 12.1118 18.9215 12.7903 18.4556C17.4212 15.3296 19.8117 13.7496 19.9618 13.7155C20.0677 13.6915 20.2144 13.6612 20.3138 13.7496C20.4132 13.838 20.4035 14.0053 20.3929 14.0502C20.3288 14.3239 17.785 16.6887 16.4688 17.9124C16.0586 18.2937 15.7677 18.5642 15.7082 18.626C15.5749 18.7645 15.4391 18.8954 15.3085 19.0213C14.502 19.7987 13.8972 20.3817 15.342 21.3338C16.0364 21.7914 16.592 22.1698 17.1464 22.5473C17.7516 22.9594 18.3552 23.3705 19.1362 23.8825C19.3352 24.0129 19.5253 24.1484 19.7104 24.2804C20.4148 24.7826 21.0477 25.2338 21.8296 25.1618C22.2839 25.12 22.7532 24.6928 22.9915 23.4187C23.5547 20.4077 24.6619 13.8837 24.9177 11.1953C24.9402 10.9597 24.912 10.6583 24.8893 10.5259C24.8666 10.3936 24.8193 10.2051 24.6473 10.0655C24.4436 9.90022 24.1292 9.86537 23.9885 9.86772C23.349 9.8791 22.3679 10.2203 17.6463 12.1841Z" fill="#242424"/>
</svg>
