<svg width="33" height="32" viewBox="0 0 33 32" fill="none" xmlns="http://www.w3.org/2000/svg">
<path fill-rule="evenodd" clip-rule="evenodd" d="M16.958 32.0081C23.5638 32.0081 28.1238 31.9852 30.4781 29.6995C32.7638 27.3452 32.7866 22.2252 32.7866 15.8366C32.7866 9.44806 32.7638 4.67091 30.4781 2.31663C28.1238 0.0309138 23.5638 0.00805664 16.958 0.00805664C10.3638 0.00805664 5.44948 0.0309138 3.09519 2.31663C0.809478 4.67091 0.786621 9.79091 0.786621 16.1795C0.786621 22.5681 0.809478 27.3452 3.09519 29.6995C5.44948 31.9852 10.3523 32.0081 16.958 32.0081ZM5.78662 9.01927C5.96245 17.7623 10.2482 23.0081 17.7646 23.0081H17.7756H18.2042V18.0089C20.9624 18.2891 23.0504 20.3515 23.8855 23.0081H27.7866C27.3865 21.4985 26.6772 20.0926 25.7055 18.8831C24.7338 17.6737 23.5217 16.688 22.1493 15.9912C23.3791 15.2273 24.4413 14.2129 25.2694 13.0114C26.0976 11.8098 26.6739 10.447 26.9624 9.00806H23.424C22.6548 11.7879 20.369 14.3099 18.2042 14.5453V9.01927H14.6548V18.7038C12.457 18.1434 9.68772 15.4308 9.56684 9.01927H5.78662Z" fill="white"/>
</svg>
