<svg width="33" height="33" viewBox="0 0 33 33" fill="none" xmlns="http://www.w3.org/2000/svg">
<path fill-rule="evenodd" clip-rule="evenodd" d="M16.9078 32.8774C23.5135 32.8774 28.0735 32.8546 30.4278 30.5689C32.7135 28.2146 32.7363 23.0946 32.7363 16.706C32.7363 10.3174 32.7135 5.5403 30.4278 3.18601C28.0735 0.900299 23.5135 0.877441 16.9078 0.877441C10.3135 0.877441 5.39919 0.900299 3.0449 3.18601C0.759185 5.5403 0.736328 10.6603 0.736328 17.0489C0.736328 23.4374 0.759185 28.2146 3.0449 30.5689C5.39919 32.8546 10.302 32.8774 16.9078 32.8774ZM5.73633 9.88865C5.91215 18.6316 10.1979 23.8774 17.7143 23.8774H17.7253H18.1539V18.8782C20.9122 19.1585 23.0001 21.2209 23.8352 23.8774H27.7363C27.3362 22.3679 26.6269 20.962 25.6552 19.7525C24.6835 18.543 23.4714 17.5574 22.099 16.8606C23.3288 16.0967 24.391 15.0823 25.2191 13.8808C26.0473 12.6792 26.6236 11.3164 26.9122 9.87744H23.3737C22.6045 12.6573 20.3187 15.1793 18.1539 15.4147V9.88865H14.6045V19.5732C12.4067 19.0127 9.63743 16.3002 9.51655 9.88865H5.73633Z" fill="#242424"/>
</svg>
