<svg width="33" height="32" viewBox="0 0 33 32" fill="none" xmlns="http://www.w3.org/2000/svg">
<path fill-rule="evenodd" clip-rule="evenodd" d="M16.9078 32.0081C23.5135 32.0081 28.0735 31.9852 30.4278 29.6995C32.7135 27.3452 32.7363 22.2252 32.7363 15.8366C32.7363 9.44806 32.7135 4.67091 30.4278 2.31663C28.0735 0.0309138 23.5135 0.00805664 16.9078 0.00805664C10.3135 0.00805664 5.39919 0.0309138 3.0449 2.31663C0.759185 4.67091 0.736328 9.79091 0.736328 16.1795C0.736328 22.5681 0.759185 27.3452 3.0449 29.6995C5.39919 31.9852 10.302 32.0081 16.9078 32.0081ZM16.7362 6.46176C19.2421 6.46176 21.6287 7.41639 23.4186 9.20632C25.2086 10.9963 26.2825 13.3828 26.2825 15.8887C26.2825 21.1392 21.9867 25.435 16.7362 25.435C15.185 25.435 13.6337 24.9577 12.2018 24.2417L7.18994 25.5544L8.50256 20.7812C7.66726 19.3493 7.18994 17.6787 7.18994 16.0081C7.18994 10.7576 11.4858 6.46176 16.7362 6.46176ZM12.6791 22.8098C13.8724 23.5258 15.3043 23.8838 16.7362 23.8838C21.1514 23.8838 24.6119 20.3039 24.6119 16.1274C24.6119 13.9795 23.896 12.0702 22.3447 10.5189C20.7934 9.08699 18.8842 8.25169 16.7362 8.25169C12.4404 8.25169 8.86054 11.8316 8.86054 16.1274C8.86054 17.5593 9.21852 18.9913 10.0538 20.3039L10.2925 20.6619L9.45718 23.5258L12.4404 22.6905L12.6791 22.8098ZM19.3615 17.2013C19.6001 17.2013 20.7934 17.798 21.0321 17.9173C21.0692 17.9359 21.1064 17.9516 21.1431 17.9671C21.3422 18.0511 21.528 18.1295 21.6287 18.6333C21.748 18.6333 21.748 19.1106 21.5094 19.7072C21.3901 20.1846 20.4354 20.7812 19.9581 20.7812C19.8773 20.7812 19.7998 20.7881 19.7171 20.7954C19.3115 20.8312 18.7791 20.8783 17.0942 20.1846C15.003 19.3481 13.5532 17.3206 13.146 16.7512C13.0885 16.6708 13.0518 16.6195 13.037 16.6047C13.0167 16.5641 12.9756 16.4992 12.9215 16.4137C12.6575 15.9969 12.0824 15.0889 12.0824 14.0988C12.0824 12.9055 12.679 12.3089 12.9177 12.0702C13.1564 11.8316 13.395 11.8316 13.5143 11.8316H13.9917C14.111 11.8316 14.3497 11.8316 14.469 12.1895C14.7077 12.6669 15.185 13.8601 15.185 13.9795C15.185 14.0192 15.1982 14.059 15.2115 14.0988C15.238 14.1784 15.2645 14.2579 15.185 14.3375C15.1253 14.3971 15.0955 14.4568 15.0656 14.5164C15.0358 14.5761 15.006 14.6358 14.9463 14.6954L14.5883 15.0534L14.5883 15.0534C14.469 15.1728 14.3497 15.2921 14.469 15.5307C14.5883 15.7694 15.0656 16.6047 15.7816 17.2013C16.5872 17.9062 17.2228 18.1862 17.5451 18.3282C17.6047 18.3545 17.6536 18.376 17.6909 18.3946C17.9295 18.3946 18.0489 18.3946 18.1682 18.2753C18.2279 18.156 18.377 17.977 18.5262 17.798C18.6753 17.619 18.8245 17.44 18.8841 17.3207C19.0035 17.082 19.1228 17.082 19.3615 17.2013Z" fill="white"/>
</svg>
