<svg width="33" height="33" viewBox="0 0 33 33" fill="none" xmlns="http://www.w3.org/2000/svg">
<path fill-rule="evenodd" clip-rule="evenodd" d="M16.8575 32.8086C23.4632 32.8086 28.0232 32.7857 30.3775 30.5C32.6632 28.1457 32.686 23.0257 32.686 16.6371C32.686 10.2486 32.6632 5.47142 30.3775 3.11713C28.0232 0.83142 23.4632 0.808563 16.8575 0.808563C10.2632 0.808563 5.34889 0.83142 2.99461 3.11713C0.708892 5.47142 0.686035 10.5914 0.686035 16.98C0.686035 23.3686 0.708892 28.1457 2.99461 30.5C5.34889 32.7857 10.2517 32.8086 16.8575 32.8086ZM16.6859 7.26227C19.1918 7.26227 21.5784 8.2169 23.3684 10.0068C25.1583 11.7968 26.2322 14.1833 26.2322 16.6892C26.2322 21.9397 21.9364 26.2355 16.6859 26.2355C15.1347 26.2355 13.5834 25.7582 12.1515 25.0422L7.13965 26.3549L8.45227 21.5817C7.61697 20.1498 7.13965 18.4792 7.13965 16.8086C7.13965 11.5581 11.4355 7.26227 16.6859 7.26227ZM12.6288 23.6103C13.8221 24.3263 15.254 24.6843 16.6859 24.6843C21.1011 24.6843 24.5616 21.1044 24.5616 16.9279C24.5616 14.78 23.8457 12.8707 22.2944 11.3194C20.7431 9.8875 18.8339 9.0522 16.6859 9.0522C12.3901 9.0522 8.81024 12.6321 8.81024 16.9279C8.81024 18.3598 9.16823 19.7918 10.0035 21.1044L10.2422 21.4624L9.40689 24.3263L12.3901 23.491L12.6288 23.6103ZM19.3112 18.0019C19.5498 18.0019 20.7431 18.5985 20.9818 18.7178C21.0189 18.7364 21.0561 18.7521 21.0928 18.7676C21.2919 18.8516 21.4777 18.9301 21.5784 19.4338C21.6978 19.4338 21.6977 19.9111 21.4591 20.5078C21.3398 20.9851 20.3851 21.5817 19.9078 21.5817C19.827 21.5817 19.7495 21.5886 19.6668 21.5959C19.2613 21.6318 18.7288 21.6789 17.0439 20.9851C14.9527 20.1486 13.5029 18.1211 13.0957 17.5517C13.0382 17.4713 13.0015 17.42 12.9867 17.4052C12.9664 17.3646 12.9254 17.2997 12.8712 17.2142C12.6072 16.7974 12.0321 15.8894 12.0321 14.8993C12.0321 13.706 12.6288 13.1094 12.8674 12.8707C13.1061 12.6321 13.3447 12.6321 13.4641 12.6321H13.9414C14.0607 12.6321 14.2994 12.6321 14.4187 12.99C14.6574 13.4674 15.1347 14.6606 15.1347 14.78C15.1347 14.8198 15.1479 14.8595 15.1612 14.8993C15.1877 14.9789 15.2142 15.0584 15.1347 15.138C15.075 15.1976 15.0452 15.2573 15.0153 15.317C14.9855 15.3766 14.9557 15.4363 14.896 15.4959L14.538 15.8539L14.538 15.8539C14.4187 15.9733 14.2994 16.0926 14.4187 16.3312C14.538 16.5699 15.0154 17.4052 15.7313 18.0019C16.5369 18.7067 17.1725 18.9867 17.4948 19.1287C17.5544 19.155 17.6033 19.1765 17.6406 19.1951C17.8792 19.1951 17.9986 19.1951 18.1179 19.0758C18.1776 18.9565 18.3267 18.7775 18.4759 18.5985C18.625 18.4195 18.7742 18.2405 18.8338 18.1212C18.9532 17.8825 19.0725 17.8825 19.3112 18.0019Z" fill="#242424"/>
</svg>
