<svg width="33" height="33" viewBox="0 0 33 33" fill="none" xmlns="http://www.w3.org/2000/svg">
<path fill-rule="evenodd" clip-rule="evenodd" d="M16.9078 32.8774C23.5135 32.8774 28.0735 32.8546 30.4278 30.5689C32.7135 28.2146 32.7363 23.0946 32.7363 16.706C32.7363 10.3174 32.7135 5.5403 30.4278 3.18601C28.0735 0.900299 23.5135 0.877441 16.9078 0.877441C10.3135 0.877441 5.39919 0.900299 3.0449 3.18601C0.759185 5.5403 0.736328 10.6603 0.736328 17.0489C0.736328 23.4374 0.759185 28.2146 3.0449 30.5689C5.39919 32.8546 10.302 32.8774 16.9078 32.8774ZM26.4851 12.3891C26.3701 11.9422 26.1433 11.5344 25.8276 11.2064C25.5119 10.8784 25.1183 10.6417 24.6861 10.5201C23.0952 10.0786 16.7363 10.0786 16.7363 10.0786C16.7363 10.0786 10.3774 10.0786 8.78655 10.5201C8.35439 10.6417 7.96076 10.8784 7.64504 11.2064C7.32933 11.5344 7.1026 11.9422 6.98756 12.3891C6.56209 14.0384 6.56209 17.478 6.56209 17.478C6.56209 17.478 6.56209 20.9175 6.98756 22.5669C7.1026 23.0138 7.32933 23.4216 7.64504 23.7496C7.96076 24.0776 8.35439 24.3142 8.78655 24.4359C10.3774 24.8774 16.7363 24.8774 16.7363 24.8774C16.7363 24.8774 23.0952 24.8774 24.6861 24.4359C25.1183 24.3142 25.5119 24.0776 25.8276 23.7496C26.1433 23.4216 26.3701 23.0138 26.4851 22.5669C26.9106 20.9175 26.9106 17.478 26.9106 17.478C26.9106 17.478 26.9106 14.0384 26.4851 12.3891ZM14.9556 20.8101C14.8223 20.8879 14.6549 20.7917 14.6549 20.6374V14.3186C14.6549 14.1643 14.8223 14.0681 14.9556 14.1459L20.3717 17.3053C20.504 17.3824 20.504 17.5736 20.3717 17.6508L14.9556 20.8101Z" fill="#242424"/>
</svg>
