<svg width="33" height="32" viewBox="0 0 33 32" fill="none" xmlns="http://www.w3.org/2000/svg">
<path fill-rule="evenodd" clip-rule="evenodd" d="M16.958 32.0081C23.5638 32.0081 28.1238 31.9852 30.4781 29.6995C32.7638 27.3452 32.7866 22.2252 32.7866 15.8366C32.7866 9.44806 32.7638 4.67091 30.4781 2.31663C28.1238 0.0309138 23.5638 0.00805664 16.958 0.00805664C10.3638 0.00805664 5.44948 0.0309138 3.09519 2.31663C0.809478 4.67091 0.786621 9.79091 0.786621 16.1795C0.786621 22.5681 0.809478 27.3452 3.09519 29.6995C5.44948 31.9852 10.3523 32.0081 16.958 32.0081ZM17.6966 11.3147C16.0429 12.0026 12.7379 13.4262 7.78151 15.5856C6.97667 15.9057 6.55506 16.2188 6.51668 16.5249C6.45182 17.0424 7.09977 17.2461 7.98211 17.5235C8.10213 17.5613 8.22648 17.6004 8.35397 17.6418C9.22206 17.924 10.3898 18.2541 10.9968 18.2672C11.5475 18.2791 12.1621 18.0521 12.8406 17.5862C17.4715 14.4602 19.862 12.8802 20.0121 12.8461C20.118 12.8221 20.2647 12.7919 20.3641 12.8802C20.4635 12.9686 20.4538 13.1359 20.4432 13.1808C20.379 13.4544 17.8356 15.819 16.5194 17.0427C16.1091 17.4242 15.818 17.6948 15.7585 17.7566C15.6252 17.8951 15.4894 18.026 15.3588 18.1519C14.5523 18.9293 13.9475 19.5123 15.3923 20.4644C16.0865 20.9219 16.6421 21.3002 17.1963 21.6777C17.8017 22.0899 18.4054 22.501 19.1865 23.0131C19.3855 23.1435 19.5756 23.279 19.7607 23.411C20.4652 23.9132 21.098 24.3644 21.8799 24.2924C22.3342 24.2506 22.8035 23.8234 23.0418 22.5493C23.605 19.5383 24.7122 13.0143 24.968 10.3259C24.9904 10.0903 24.9622 9.78889 24.9396 9.65656C24.9169 9.52423 24.8696 9.3357 24.6976 9.19613C24.4939 9.03084 24.1794 8.99598 24.0388 8.99834C23.3993 9.00972 22.4182 9.35087 17.6966 11.3147Z" fill="white"/>
</svg>
